<?xml version="1.0" encoding="UTF-8" standalone="no"?>
<!DOCTYPE svg PUBLIC "-//W3C//DTD SVG 1.1//EN"
 "http://www.w3.org/Graphics/SVG/1.1/DTD/svg11.dtd">
<!-- Generated by graphviz version 2.44.0 (0)
 -->
<!-- Title: util.test Pages: 1 -->
<svg width="100%" height="100%" xmlns="http://www.w3.org/2000/svg" xmlns:xlink="http://www.w3.org/1999/xlink">
<script type="text/ecmascript"><![CDATA[
/**
 *  SVGPan library 1.2.2
 * ======================
 *
 * Given an unique existing element with id "viewport" (or when missing, the
 * first g-element), including the library into any SVG adds the following
 * capabilities:
 *
 *  - Mouse panning
 *  - Mouse zooming (using the wheel)
 *  - Object dragging
 *
 * You can configure the behaviour of the pan/zoom/drag with the variables
 * listed in the CONFIGURATION section of this file.
 *
 * Known issues:
 *
 *  - Zooming (while panning) on Safari has still some issues
 *
 * Releases:
 *
 * 1.2.2, Tue Aug 30 17:21:56 CEST 2011, Andrea Leofreddi
 *	- Fixed viewBox on root tag (#7)
 *	- Improved zoom speed (#2)
 *
 * 1.2.1, Mon Jul  4 00:33:18 CEST 2011, Andrea Leofreddi
 *	- Fixed a regression with mouse wheel (now working on Firefox 5)
 *	- Working with viewBox attribute (#4)
 *	- Added "use strict;" and fixed resulting warnings (#5)
 *	- Added configuration variables, dragging is disabled by default (#3)
 *
 * 1.2, Sat Mar 20 08:42:50 GMT 2010, Zeng Xiaohui
 *	Fixed a bug with browser mouse handler interaction
 *
 * 1.1, Wed Feb  3 17:39:33 GMT 2010, Zeng Xiaohui
 *	Updated the zoom code to support the mouse wheel on Safari/Chrome
 *
 * 1.0, Andrea Leofreddi
 *	First release
 *
 * This code is licensed under the following BSD license:
 *
 * Copyright 2009-2017 Andrea Leofreddi <a.leofreddi@vleo.net>. All rights reserved.
 *
 * Redistribution and use in source and binary forms, with or without modification, are
 * permitted provided that the following conditions are met:
 *
 *    1. Redistributions of source code must retain the above copyright
 *       notice, this list of conditions and the following disclaimer.
 *    2. Redistributions in binary form must reproduce the above copyright
 *       notice, this list of conditions and the following disclaimer in the
 *       documentation and/or other materials provided with the distribution.
 *    3. Neither the name of the copyright holder nor the names of its
 *       contributors may be used to endorse or promote products derived from
 *       this software without specific prior written permission.
 *
 * THIS SOFTWARE IS PROVIDED BY COPYRIGHT HOLDERS AND CONTRIBUTORS ''AS IS'' AND ANY EXPRESS
 * OR IMPLIED WARRANTIES, INCLUDING, BUT NOT LIMITED TO, THE IMPLIED WARRANTIES OF MERCHANTABILITY
 * AND FITNESS FOR A PARTICULAR PURPOSE ARE DISCLAIMED. IN NO EVENT SHALL COPYRIGHT HOLDERS OR
 * CONTRIBUTORS BE LIABLE FOR ANY DIRECT, INDIRECT, INCIDENTAL, SPECIAL, EXEMPLARY, OR
 * CONSEQUENTIAL DAMAGES (INCLUDING, BUT NOT LIMITED TO, PROCUREMENT OF SUBSTITUTE GOODS OR
 * SERVICES; LOSS OF USE, DATA, OR PROFITS; OR BUSINESS INTERRUPTION) HOWEVER CAUSED AND ON
 * ANY THEORY OF LIABILITY, WHETHER IN CONTRACT, STRICT LIABILITY, OR TORT (INCLUDING
 * NEGLIGENCE OR OTHERWISE) ARISING IN ANY WAY OUT OF THE USE OF THIS SOFTWARE, EVEN IF
 * ADVISED OF THE POSSIBILITY OF SUCH DAMAGE.
 *
 * The views and conclusions contained in the software and documentation are those of the
 * authors and should not be interpreted as representing official policies, either expressed
 * or implied, of Andrea Leofreddi.
 */

"use strict";

/// CONFIGURATION
/// ====>

var enablePan = 1; // 1 or 0: enable or disable panning (default enabled)
var enableZoom = 1; // 1 or 0: enable or disable zooming (default enabled)
var enableDrag = 0; // 1 or 0: enable or disable dragging (default disabled)
var zoomScale = 0.2; // Zoom sensitivity

/// <====
/// END OF CONFIGURATION

var root = document.documentElement;

var state = 'none', svgRoot = null, stateTarget, stateOrigin, stateTf;

setupHandlers(root);

/**
 * Register handlers
 */
function setupHandlers(root){
	setAttributes(root, {
		"onmouseup" : "handleMouseUp(evt)",
		"onmousedown" : "handleMouseDown(evt)",
		"onmousemove" : "handleMouseMove(evt)",
		//"onmouseout" : "handleMouseUp(evt)", // Decomment this to stop the pan functionality when dragging out of the SVG element
	});

	if(navigator.userAgent.toLowerCase().indexOf('webkit') >= 0)
		window.addEventListener('mousewheel', handleMouseWheel, false); // Chrome/Safari
	else
		window.addEventListener('DOMMouseScroll', handleMouseWheel, false); // Others
}

/**
 * Retrieves the root element for SVG manipulation. The element is then cached into the svgRoot global variable.
 */
function getRoot(root) {
	if(svgRoot == null) {
		var r = root.getElementById("viewport") ? root.getElementById("viewport") : root.documentElement, t = r;

		while(t != root) {
			if(t.getAttribute("viewBox")) {
				setCTM(r, t.getCTM());

				t.removeAttribute("viewBox");
			}

			t = t.parentNode;
		}

		svgRoot = r;
	}

	return svgRoot;
}

/**
 * Instance an SVGPoint object with given event coordinates.
 */
function getEventPoint(evt) {
	var p = root.createSVGPoint();

	p.x = evt.clientX;
	p.y = evt.clientY;

	return p;
}

/**
 * Sets the current transform matrix of an element.
 */
function setCTM(element, matrix) {
	var s = "matrix(" + matrix.a + "," + matrix.b + "," + matrix.c + "," + matrix.d + "," + matrix.e + "," + matrix.f + ")";

	element.setAttribute("transform", s);
}

/**
 * Dumps a matrix to a string (useful for debug).
 */
function dumpMatrix(matrix) {
	var s = "[ " + matrix.a + ", " + matrix.c + ", " + matrix.e + "\n  " + matrix.b + ", " + matrix.d + ", " + matrix.f + "\n  0, 0, 1 ]";

	return s;
}

/**
 * Sets attributes of an element.
 */
function setAttributes(element, attributes){
	for (var i in attributes)
		element.setAttributeNS(null, i, attributes[i]);
}

/**
 * Handle mouse wheel event.
 */
function handleMouseWheel(evt) {
	if(!enableZoom)
		return;

	if(evt.preventDefault)
		evt.preventDefault();

	evt.returnValue = false;

	var svgDoc = evt.target.ownerDocument;

	var delta;

	if(evt.wheelDelta)
		delta = evt.wheelDelta / 360; // Chrome/Safari
	else
		delta = evt.detail / -9; // Mozilla

	var z = Math.pow(1 + zoomScale, delta);

	var g = getRoot(svgDoc);
	
	var p = getEventPoint(evt);

	p = p.matrixTransform(g.getCTM().inverse());

	// Compute new scale matrix in current mouse position
	var k = root.createSVGMatrix().translate(p.x, p.y).scale(z).translate(-p.x, -p.y);

        setCTM(g, g.getCTM().multiply(k));

	if(typeof(stateTf) == "undefined")
		stateTf = g.getCTM().inverse();

	stateTf = stateTf.multiply(k.inverse());
}

/**
 * Handle mouse move event.
 */
function handleMouseMove(evt) {
	if(evt.preventDefault)
		evt.preventDefault();

	evt.returnValue = false;

	var svgDoc = evt.target.ownerDocument;

	var g = getRoot(svgDoc);

	if(state == 'pan' && enablePan) {
		// Pan mode
		var p = getEventPoint(evt).matrixTransform(stateTf);

		setCTM(g, stateTf.inverse().translate(p.x - stateOrigin.x, p.y - stateOrigin.y));
	} else if(state == 'drag' && enableDrag) {
		// Drag mode
		var p = getEventPoint(evt).matrixTransform(g.getCTM().inverse());

		setCTM(stateTarget, root.createSVGMatrix().translate(p.x - stateOrigin.x, p.y - stateOrigin.y).multiply(g.getCTM().inverse()).multiply(stateTarget.getCTM()));

		stateOrigin = p;
	}
}

/**
 * Handle click event.
 */
function handleMouseDown(evt) {
	if(evt.preventDefault)
		evt.preventDefault();

	evt.returnValue = false;

	var svgDoc = evt.target.ownerDocument;

	var g = getRoot(svgDoc);

	if(
		evt.target.tagName == "svg"
		|| !enableDrag // Pan anyway when drag is disabled and the user clicked on an element
	) {
		// Pan mode
		state = 'pan';

		stateTf = g.getCTM().inverse();

		stateOrigin = getEventPoint(evt).matrixTransform(stateTf);
	} else {
		// Drag mode
		state = 'drag';

		stateTarget = evt.target;

		stateTf = g.getCTM().inverse();

		stateOrigin = getEventPoint(evt).matrixTransform(stateTf);
	}
}

/**
 * Handle mouse button release event.
 */
function handleMouseUp(evt) {
	if(evt.preventDefault)
		evt.preventDefault();

	evt.returnValue = false;

	var svgDoc = evt.target.ownerDocument;

	if(state == 'pan' || state == 'drag') {
		// Quit pan mode
		state = '';
	}
}
]]></script><g id="viewport" transform="scale(0.5,0.5) translate(0,0)"><g id="graph0" class="graph" transform="scale(1 1) rotate(0) translate(4 1456)">
<title>util.test</title>
<polygon fill="white" stroke="transparent" points="-4,4 -4,-1456 1082,-1456 1082,4 -4,4"/>
<g id="clust1" class="cluster">
<title>cluster_L</title>
<polygon fill="none" stroke="black" points="8,-1311 8,-1444 614,-1444 614,-1311 8,-1311"/>
</g>
<!-- File: util.test -->
<g id="node1" class="node">
<title>File: util.test</title>
<g id="a_node1"><a xlink:title="util.test">
<polygon fill="#f8f8f8" stroke="black" points="606,-1436 16,-1436 16,-1319 606,-1319 606,-1436"/>
<text text-anchor="start" x="24" y="-1419.2" font-family="Times-Roman" font-size="16.00">File: util.test</text>
<text text-anchor="start" x="24" y="-1401.2" font-family="Times-Roman" font-size="16.00">Type: alloc_space</text>
<text text-anchor="start" x="24" y="-1383.2" font-family="Times-Roman" font-size="16.00">Time: Jun 9, 2021 at 2:29pm (EDT)</text>
<text text-anchor="start" x="24" y="-1365.2" font-family="Times-Roman" font-size="16.00">Showing nodes accounting for 50280.04kB, 100% of 50280.04kB total</text>
<text text-anchor="start" x="24" y="-1328.2" font-family="Times-Roman" font-size="16.00">See https://git.io/JfYMW for how to read the graph</text>
</a>
</g>
</g>
<!-- N1 -->
<g id="node1" class="node">
<title>N1</title>
<g id="a_node1"><a xlink:title="github.com/ovn&#45;org/ovn&#45;kubernetes/go&#45;controller/pkg/util.findMaxArgsUsable (49751.87kB)">
<polygon fill="#edd5d5" stroke="#b20000" points="646,-1054 444,-1054 444,-978 646,-978 646,-1054"/>
<text text-anchor="middle" x="545" y="-1038" font-family="Times-Roman" font-size="15.00">util</text>
<text text-anchor="middle" x="545" y="-1021" font-family="Times-Roman" font-size="15.00">findMaxArgsUsable</text>
<text text-anchor="middle" x="545" y="-1004" font-family="Times-Roman" font-size="15.00">4097.37kB (8.15%)</text>
<text text-anchor="middle" x="545" y="-987" font-family="Times-Roman" font-size="15.00">of 49751.87kB (98.95%)</text>
</a>
</g>
</g>
<!-- NN1_0 -->
<g id="NN1_0" class="node">
<title>NN1_0</title>
<g id="a_NN1_0"><a xlink:title="4097.37kB">
<polygon fill="#f8f8f8" stroke="black" points="585.5,-927 508.5,-927 504.5,-923 504.5,-891 581.5,-891 585.5,-895 585.5,-927"/>
<polyline fill="none" stroke="black" points="581.5,-923 504.5,-923 "/>
<polyline fill="none" stroke="black" points="581.5,-923 581.5,-891 "/>
<polyline fill="none" stroke="black" points="581.5,-923 585.5,-927 "/>
<text text-anchor="middle" x="545" y="-907.1" font-family="Times-Roman" font-size="8.00">2.92MB..4.01MB</text>
</a>
</g>
</g>
<!-- N1&#45;&gt;NN1_0 -->
<g id="edge1" class="edge">
<title>N1&#45;&gt;NN1_0</title>
<g id="a_edge1"><a xlink:title="4097.37kB">
<path fill="none" stroke="black" d="M545,-977.98C545,-964.56 545,-949.65 545,-937.22"/>
<polygon fill="black" stroke="black" points="548.5,-937.04 545,-927.04 541.5,-937.04 548.5,-937.04"/>
</a>
</g>
<g id="a_edge1&#45;label"><a xlink:title="4097.37kB">
<text text-anchor="middle" x="586" y="-948.8" font-family="Times-Roman" font-size="14.00"> 4097.37kB</text>
</a>
</g>
</g>
<!-- N2 -->
<g id="node2" class="node">
<title>N2</title>
<g id="a_node2"><a xlink:title="os/exec.Command (28243.75kB)">
<polygon fill="#edd9d5" stroke="#b21c00" points="779.5,-854 504.5,-854 504.5,-768 779.5,-768 779.5,-854"/>
<text text-anchor="middle" x="642" y="-830.8" font-family="Times-Roman" font-size="24.00">exec</text>
<text text-anchor="middle" x="642" y="-804.8" font-family="Times-Roman" font-size="24.00">Command</text>
<text text-anchor="middle" x="642" y="-778.8" font-family="Times-Roman" font-size="24.00">28243.75kB (56.17%)</text>
</a>
</g>
</g>
<!-- N1&#45;&gt;N2 -->
<g id="edge11" class="edge">
<title>N1&#45;&gt;N2</title>
<g id="a_edge11"><a xlink:title="github.com/ovn&#45;org/ovn&#45;kubernetes/go&#45;controller/pkg/util.findMaxArgsUsable &#45;&gt; os/exec.Command (28243.75kB)">
<path fill="none" stroke="#b21c00" stroke-width="3" d="M613.44,-977.74C619.07,-972.43 624.09,-966.52 628,-960 645.03,-931.58 648.5,-894.45 647.73,-864.49"/>
<polygon fill="#b21c00" stroke="#b21c00" stroke-width="3" points="651.22,-864.06 647.3,-854.22 644.22,-864.36 651.22,-864.06"/>
</a>
</g>
<g id="a_edge11&#45;label"><a xlink:title="github.com/ovn&#45;org/ovn&#45;kubernetes/go&#45;controller/pkg/util.findMaxArgsUsable &#45;&gt; os/exec.Command (28243.75kB)">
<text text-anchor="middle" x="693.5" y="-905.3" font-family="Times-Roman" font-size="14.00"> 28243.75kB</text>
</a>
</g>
</g>
<!-- N13 -->
<g id="node13" class="node">
<title>N13</title>
<g id="a_node13"><a xlink:title="os/exec.(*Cmd).Output (17410.75kB)">
<polygon fill="#eddbd5" stroke="#b23000" points="920,-833 798,-833 798,-789 920,-789 920,-833"/>
<text text-anchor="middle" x="859" y="-822.6" font-family="Times-Roman" font-size="8.00">exec</text>
<text text-anchor="middle" x="859" y="-813.6" font-family="Times-Roman" font-size="8.00">(*Cmd)</text>
<text text-anchor="middle" x="859" y="-804.6" font-family="Times-Roman" font-size="8.00">Output</text>
<text text-anchor="middle" x="859" y="-795.6" font-family="Times-Roman" font-size="8.00">0 of 17410.75kB (34.63%)</text>
</a>
</g>
</g>
<!-- N1&#45;&gt;N13 -->
<g id="edge17" class="edge">
<title>N1&#45;&gt;N13</title>
<g id="a_edge17"><a xlink:title="github.com/ovn&#45;org/ovn&#45;kubernetes/go&#45;controller/pkg/util.findMaxArgsUsable &#45;&gt; os/exec.(*Cmd).Output (17410.75kB)">
<path fill="none" stroke="#b23000" stroke-width="2" d="M646.18,-978.4C678.44,-964.58 713.42,-947.22 743,-927 778.91,-902.45 813.44,-866.03 835.34,-840.78"/>
<polygon fill="#b23000" stroke="#b23000" stroke-width="2" points="838.15,-842.88 842,-833 832.84,-838.33 838.15,-842.88"/>
</a>
</g>
<g id="a_edge17&#45;label"><a xlink:title="github.com/ovn&#45;org/ovn&#45;kubernetes/go&#45;controller/pkg/util.findMaxArgsUsable &#45;&gt; os/exec.(*Cmd).Output (17410.75kB)">
<text text-anchor="middle" x="831.5" y="-905.3" font-family="Times-Roman" font-size="14.00"> 17410.75kB</text>
</a>
</g>
</g>
<!-- NN2_0 -->
<g id="NN2_0" class="node">
<title>NN2_0</title>
<g id="a_NN2_0"><a xlink:title="8210.71kB">
<polygon fill="#f8f8f8" stroke="black" points="462,-713 412,-713 408,-709 408,-677 458,-677 462,-681 462,-713"/>
<polyline fill="none" stroke="black" points="458,-709 408,-709 "/>
<polyline fill="none" stroke="black" points="458,-709 458,-677 "/>
<polyline fill="none" stroke="black" points="458,-709 462,-713 "/>
<text text-anchor="middle" x="435" y="-693.1" font-family="Times-Roman" font-size="8.00">4.01MB</text>
</a>
</g>
</g>
<!-- N2&#45;&gt;NN2_0 -->
<g id="edge2" class="edge">
<title>N2&#45;&gt;NN2_0</title>
<g id="a_edge2"><a xlink:title="8210.71kB">
<path fill="none" stroke="black" d="M504.11,-775.54C489.69,-768.53 475.96,-760.1 464,-750 455.4,-742.74 448.96,-732.26 444.36,-722.46"/>
<polygon fill="black" stroke="black" points="447.49,-720.88 440.36,-713.04 441.04,-723.61 447.49,-720.88"/>
</a>
</g>
<g id="a_edge2&#45;label"><a xlink:title="8210.71kB">
<text text-anchor="middle" x="505" y="-738.8" font-family="Times-Roman" font-size="14.00"> 8210.71kB</text>
</a>
</g>
</g>
<!-- NN2_1 -->
<g id="NN2_1" class="node">
<title>NN2_1</title>
<g id="a_NN2_1"><a xlink:title="7381.49kB">
<polygon fill="#f8f8f8" stroke="black" points="567,-713 517,-713 513,-709 513,-677 563,-677 567,-681 567,-713"/>
<polyline fill="none" stroke="black" points="563,-709 513,-709 "/>
<polyline fill="none" stroke="black" points="563,-709 563,-677 "/>
<polyline fill="none" stroke="black" points="563,-709 567,-713 "/>
<text text-anchor="middle" x="540" y="-693.1" font-family="Times-Roman" font-size="8.00">3.60MB</text>
</a>
</g>
</g>
<!-- N2&#45;&gt;NN2_1 -->
<g id="edge3" class="edge">
<title>N2&#45;&gt;NN2_1</title>
<g id="a_edge3"><a xlink:title="7381.49kB">
<path fill="none" stroke="black" d="M574.23,-767.76C568.24,-762.28 562.68,-756.34 558,-750 552.2,-742.15 548.19,-732.31 545.46,-723.19"/>
<polygon fill="black" stroke="black" points="548.81,-722.14 542.89,-713.35 542.03,-723.91 548.81,-722.14"/>
</a>
</g>
<g id="a_edge3&#45;label"><a xlink:title="7381.49kB">
<text text-anchor="middle" x="599" y="-738.8" font-family="Times-Roman" font-size="14.00"> 7381.49kB</text>
</a>
</g>
</g>
<!-- NN2_2 -->
<g id="NN2_2" class="node">
<title>NN2_2</title>
<g id="a_NN2_2"><a xlink:title="6650.15kB">
<polygon fill="#f8f8f8" stroke="black" points="672,-713 622,-713 618,-709 618,-677 668,-677 672,-681 672,-713"/>
<polyline fill="none" stroke="black" points="668,-709 618,-709 "/>
<polyline fill="none" stroke="black" points="668,-709 668,-677 "/>
<polyline fill="none" stroke="black" points="668,-709 672,-713 "/>
<text text-anchor="middle" x="645" y="-693.1" font-family="Times-Roman" font-size="8.00">3.24MB</text>
</a>
</g>
</g>
<!-- N2&#45;&gt;NN2_2 -->
<g id="edge4" class="edge">
<title>N2&#45;&gt;NN2_2</title>
<g id="a_edge4"><a xlink:title="6650.15kB">
<path fill="none" stroke="black" d="M643.11,-767.87C643.5,-753.11 643.92,-736.91 644.27,-723.63"/>
<polygon fill="black" stroke="black" points="647.78,-723.36 644.55,-713.27 640.78,-723.17 647.78,-723.36"/>
</a>
</g>
<g id="a_edge4&#45;label"><a xlink:title="6650.15kB">
<text text-anchor="middle" x="685" y="-738.8" font-family="Times-Roman" font-size="14.00"> 6650.15kB</text>
</a>
</g>
</g>
<!-- NN2_3 -->
<g id="NN2_3" class="node">
<title>NN2_3</title>
<g id="a_NN2_3"><a xlink:title="6001.39kB">
<polygon fill="#f8f8f8" stroke="black" points="777,-713 727,-713 723,-709 723,-677 773,-677 777,-681 777,-713"/>
<polyline fill="none" stroke="black" points="773,-709 723,-709 "/>
<polyline fill="none" stroke="black" points="773,-709 773,-677 "/>
<polyline fill="none" stroke="black" points="773,-709 777,-713 "/>
<text text-anchor="middle" x="750" y="-693.1" font-family="Times-Roman" font-size="8.00">2.92MB</text>
</a>
</g>
</g>
<!-- N2&#45;&gt;NN2_3 -->
<g id="edge5" class="edge">
<title>N2&#45;&gt;NN2_3</title>
<g id="a_edge5"><a xlink:title="6001.39kB">
<path fill="none" stroke="black" d="M710.54,-767.95C716.91,-762.4 722.89,-756.4 728,-750 734.31,-742.1 739.05,-732.15 742.48,-722.94"/>
<polygon fill="black" stroke="black" points="745.82,-723.98 745.7,-713.38 739.19,-721.74 745.82,-723.98"/>
</a>
</g>
<g id="a_edge5&#45;label"><a xlink:title="6001.39kB">
<text text-anchor="middle" x="779" y="-738.8" font-family="Times-Roman" font-size="14.00"> 6001.39kB</text>
</a>
</g>
</g>
<!-- N3 -->
<g id="node3" class="node">
<title>N3</title>
<g id="a_node3"><a xlink:title="syscall.SlicePtrFromStrings (17410.75kB)">
<polygon fill="#eddbd5" stroke="#b23000" points="983,-164 735,-164 735,-87 983,-87 983,-164"/>
<text text-anchor="middle" x="859" y="-143.2" font-family="Times-Roman" font-size="21.00">syscall</text>
<text text-anchor="middle" x="859" y="-120.2" font-family="Times-Roman" font-size="21.00">SlicePtrFromStrings</text>
<text text-anchor="middle" x="859" y="-97.2" font-family="Times-Roman" font-size="21.00">17410.75kB (34.63%)</text>
</a>
</g>
</g>
<!-- NN3_0 -->
<g id="NN3_0" class="node">
<title>NN3_0</title>
<g id="a_NN3_0"><a xlink:title="5962.17kB">
<polygon fill="#f8f8f8" stroke="black" points="735,-36 673,-36 669,-32 669,0 731,0 735,-4 735,-36"/>
<polyline fill="none" stroke="black" points="731,-32 669,-32 "/>
<polyline fill="none" stroke="black" points="731,-32 731,0 "/>
<polyline fill="none" stroke="black" points="731,-32 735,-36 "/>
<text text-anchor="middle" x="702" y="-16.1" font-family="Times-Roman" font-size="8.00">4kB..1.46MB</text>
</a>
</g>
</g>
<!-- N3&#45;&gt;NN3_0 -->
<g id="edge6" class="edge">
<title>N3&#45;&gt;NN3_0</title>
<g id="a_edge6"><a xlink:title="5962.17kB">
<path fill="none" stroke="black" d="M739.26,-86.85C731.5,-81.64 724.29,-75.72 718,-69 712.13,-62.73 708.41,-54.31 706.06,-46.16"/>
<polygon fill="black" stroke="black" points="709.41,-45.12 703.75,-36.17 702.59,-46.7 709.41,-45.12"/>
</a>
</g>
<g id="a_edge6&#45;label"><a xlink:title="5962.17kB">
<text text-anchor="middle" x="759" y="-57.8" font-family="Times-Roman" font-size="14.00"> 5962.17kB</text>
</a>
</g>
</g>
<!-- NN3_1 -->
<g id="NN3_1" class="node">
<title>NN3_1</title>
<g id="a_NN3_1"><a xlink:title="4187.51kB">
<polygon fill="#f8f8f8" stroke="black" points="834,-36 784,-36 780,-32 780,0 830,0 834,-4 834,-36"/>
<polyline fill="none" stroke="black" points="830,-32 780,-32 "/>
<polyline fill="none" stroke="black" points="830,-32 830,0 "/>
<polyline fill="none" stroke="black" points="830,-32 834,-36 "/>
<text text-anchor="middle" x="807" y="-16.1" font-family="Times-Roman" font-size="8.00">2.01MB</text>
</a>
</g>
</g>
<!-- N3&#45;&gt;NN3_1 -->
<g id="edge7" class="edge">
<title>N3&#45;&gt;NN3_1</title>
<g id="a_edge7"><a xlink:title="4187.51kB">
<path fill="none" stroke="black" d="M818.29,-86.97C814.14,-81.35 810.53,-75.32 808,-69 805.19,-61.99 804.17,-53.97 804.05,-46.44"/>
<polygon fill="black" stroke="black" points="807.56,-46.38 804.4,-36.26 800.56,-46.14 807.56,-46.38"/>
</a>
</g>
<g id="a_edge7&#45;label"><a xlink:title="4187.51kB">
<text text-anchor="middle" x="849" y="-57.8" font-family="Times-Roman" font-size="14.00"> 4187.51kB</text>
</a>
</g>
</g>
<!-- NN3_2 -->
<g id="NN3_2" class="node">
<title>NN3_2</title>
<g id="a_NN3_2"><a xlink:title="3798.83kB">
<polygon fill="#f8f8f8" stroke="black" points="939,-36 889,-36 885,-32 885,0 935,0 939,-4 939,-36"/>
<polyline fill="none" stroke="black" points="935,-32 885,-32 "/>
<polyline fill="none" stroke="black" points="935,-32 935,0 "/>
<polyline fill="none" stroke="black" points="935,-32 939,-36 "/>
<text text-anchor="middle" x="912" y="-16.1" font-family="Times-Roman" font-size="8.00">1.80MB</text>
</a>
</g>
</g>
<!-- N3&#45;&gt;NN3_2 -->
<g id="edge8" class="edge">
<title>N3&#45;&gt;NN3_2</title>
<g id="a_edge8"><a xlink:title="3798.83kB">
<path fill="none" stroke="black" d="M880.66,-86.84C883.89,-80.92 887.1,-74.83 890,-69 893.74,-61.48 897.53,-53.17 900.88,-45.53"/>
<polygon fill="black" stroke="black" points="904.12,-46.88 904.86,-36.31 897.69,-44.11 904.12,-46.88"/>
</a>
</g>
<g id="a_edge8&#45;label"><a xlink:title="3798.83kB">
<text text-anchor="middle" x="938" y="-57.8" font-family="Times-Roman" font-size="14.00"> 3798.83kB</text>
</a>
</g>
</g>
<!-- NN3_3 -->
<g id="NN3_3" class="node">
<title>NN3_3</title>
<g id="a_NN3_3"><a xlink:title="3462.24kB">
<polygon fill="#f8f8f8" stroke="black" points="1044,-36 994,-36 990,-32 990,0 1040,0 1044,-4 1044,-36"/>
<polyline fill="none" stroke="black" points="1040,-32 990,-32 "/>
<polyline fill="none" stroke="black" points="1040,-32 1040,0 "/>
<polyline fill="none" stroke="black" points="1040,-32 1044,-36 "/>
<text text-anchor="middle" x="1017" y="-16.1" font-family="Times-Roman" font-size="8.00">1.62MB</text>
</a>
</g>
</g>
<!-- N3&#45;&gt;NN3_3 -->
<g id="edge9" class="edge">
<title>N3&#45;&gt;NN3_3</title>
<g id="a_edge9"><a xlink:title="3462.24kB">
<path fill="none" stroke="black" d="M957.22,-86.88C966.36,-81.54 975.13,-75.59 983,-69 991,-62.3 997.92,-53.26 1003.39,-44.7"/>
<polygon fill="black" stroke="black" points="1006.41,-46.47 1008.54,-36.09 1000.4,-42.87 1006.41,-46.47"/>
</a>
</g>
<g id="a_edge9&#45;label"><a xlink:title="3462.24kB">
<text text-anchor="middle" x="1037" y="-57.8" font-family="Times-Roman" font-size="14.00"> 3462.24kB</text>
</a>
</g>
</g>
<!-- N4 -->
<g id="node4" class="node">
<title>N4</title>
<g id="a_node4"><a xlink:title="testing.tRunner (26339.92kB)">
<polygon fill="#edd9d5" stroke="#b21f00" points="606,-1259.5 484,-1259.5 484,-1223.5 606,-1223.5 606,-1259.5"/>
<text text-anchor="middle" x="545" y="-1248.6" font-family="Times-Roman" font-size="8.00">testing</text>
<text text-anchor="middle" x="545" y="-1239.6" font-family="Times-Roman" font-size="8.00">tRunner</text>
<text text-anchor="middle" x="545" y="-1230.6" font-family="Times-Roman" font-size="8.00">0 of 26339.92kB (52.39%)</text>
</a>
</g>
</g>
<!-- N8 -->
<g id="node8" class="node">
<title>N8</title>
<g id="a_node8"><a xlink:title="github.com/ovn&#45;org/ovn&#45;kubernetes/go&#45;controller/pkg/util.TestFindMaxArgsUsable.func1 (26339.92kB)">
<polygon fill="#edd9d5" stroke="#b21f00" points="606,-1149 484,-1149 484,-1105 606,-1105 606,-1149"/>
<text text-anchor="middle" x="545" y="-1138.6" font-family="Times-Roman" font-size="8.00">util</text>
<text text-anchor="middle" x="545" y="-1129.6" font-family="Times-Roman" font-size="8.00">TestFindMaxArgsUsable</text>
<text text-anchor="middle" x="545" y="-1120.6" font-family="Times-Roman" font-size="8.00">func1</text>
<text text-anchor="middle" x="545" y="-1111.6" font-family="Times-Roman" font-size="8.00">0 of 26339.92kB (52.39%)</text>
</a>
</g>
</g>
<!-- N4&#45;&gt;N8 -->
<g id="edge13" class="edge">
<title>N4&#45;&gt;N8</title>
<g id="a_edge13"><a xlink:title="testing.tRunner &#45;&gt; github.com/ovn&#45;org/ovn&#45;kubernetes/go&#45;controller/pkg/util.TestFindMaxArgsUsable.func1 (26339.92kB)">
<path fill="none" stroke="#b21f00" stroke-width="3" d="M545,-1223.41C545,-1206.45 545,-1180.07 545,-1159.34"/>
<polygon fill="#b21f00" stroke="#b21f00" stroke-width="3" points="548.5,-1159.09 545,-1149.09 541.5,-1159.09 548.5,-1159.09"/>
</a>
</g>
<g id="a_edge13&#45;label"><a xlink:title="testing.tRunner &#45;&gt; github.com/ovn&#45;org/ovn&#45;kubernetes/go&#45;controller/pkg/util.TestFindMaxArgsUsable.func1 (26339.92kB)">
<text text-anchor="middle" x="590.5" y="-1178.3" font-family="Times-Roman" font-size="14.00"> 26339.92kB</text>
</a>
</g>
</g>
<!-- N5 -->
<g id="node5" class="node">
<title>N5</title>
<g id="a_node5"><a xlink:title="runtime.main (23411.95kB)">
<polygon fill="#eddad5" stroke="#b22400" points="746,-1395.5 624,-1395.5 624,-1359.5 746,-1359.5 746,-1395.5"/>
<text text-anchor="middle" x="685" y="-1384.6" font-family="Times-Roman" font-size="8.00">runtime</text>
<text text-anchor="middle" x="685" y="-1375.6" font-family="Times-Roman" font-size="8.00">main</text>
<text text-anchor="middle" x="685" y="-1366.6" font-family="Times-Roman" font-size="8.00">0 of 23411.95kB (46.56%)</text>
</a>
</g>
</g>
<!-- N17 -->
<g id="node17" class="node">
<title>N17</title>
<g id="a_node17"><a xlink:title="runtime.doInit (23411.95kB)">
<polygon fill="#eddad5" stroke="#b22400" points="746,-1259.5 624,-1259.5 624,-1223.5 746,-1223.5 746,-1259.5"/>
<text text-anchor="middle" x="685" y="-1248.6" font-family="Times-Roman" font-size="8.00">runtime</text>
<text text-anchor="middle" x="685" y="-1239.6" font-family="Times-Roman" font-size="8.00">doInit</text>
<text text-anchor="middle" x="685" y="-1230.6" font-family="Times-Roman" font-size="8.00">0 of 23411.95kB (46.56%)</text>
</a>
</g>
</g>
<!-- N5&#45;&gt;N17 -->
<g id="edge16" class="edge">
<title>N5&#45;&gt;N17</title>
<g id="a_edge16"><a xlink:title="runtime.main &#45;&gt; runtime.doInit (23411.95kB)">
<path fill="none" stroke="#b22400" stroke-width="3" d="M685,-1359.26C685,-1336.64 685,-1296.7 685,-1269.92"/>
<polygon fill="#b22400" stroke="#b22400" stroke-width="3" points="688.5,-1269.68 685,-1259.68 681.5,-1269.68 688.5,-1269.68"/>
</a>
</g>
<g id="a_edge16&#45;label"><a xlink:title="runtime.main &#45;&gt; runtime.doInit (23411.95kB)">
<text text-anchor="middle" x="730.5" y="-1289.8" font-family="Times-Roman" font-size="14.00"> 23411.95kB</text>
</a>
</g>
</g>
<!-- N6 -->
<g id="node6" class="node">
<title>N6</title>
<g id="a_node6"><a xlink:title="io.copyBuffer (528.17kB)">
<polygon fill="#edeceb" stroke="#b2b0a9" points="1007.5,-1038 892.5,-1038 892.5,-994 1007.5,-994 1007.5,-1038"/>
<text text-anchor="middle" x="950" y="-1025.2" font-family="Times-Roman" font-size="11.00">io</text>
<text text-anchor="middle" x="950" y="-1013.2" font-family="Times-Roman" font-size="11.00">copyBuffer</text>
<text text-anchor="middle" x="950" y="-1001.2" font-family="Times-Roman" font-size="11.00">528.17kB (1.05%)</text>
</a>
</g>
</g>
<!-- NN6_0 -->
<g id="NN6_0" class="node">
<title>NN6_0</title>
<g id="a_NN6_0"><a xlink:title="528.17kB">
<polygon fill="#f8f8f8" stroke="black" points="977,-927 927,-927 923,-923 923,-891 973,-891 977,-895 977,-927"/>
<polyline fill="none" stroke="black" points="973,-923 923,-923 "/>
<polyline fill="none" stroke="black" points="973,-923 973,-891 "/>
<polyline fill="none" stroke="black" points="973,-923 977,-927 "/>
<text text-anchor="middle" x="950" y="-907.1" font-family="Times-Roman" font-size="8.00">32kB</text>
</a>
</g>
</g>
<!-- N6&#45;&gt;NN6_0 -->
<g id="edge10" class="edge">
<title>N6&#45;&gt;NN6_0</title>
<g id="a_edge10"><a xlink:title="528.17kB">
<path fill="none" stroke="black" d="M950,-993.75C950,-977.47 950,-954.9 950,-937.28"/>
<polygon fill="black" stroke="black" points="953.5,-937.06 950,-927.06 946.5,-937.06 953.5,-937.06"/>
</a>
</g>
<g id="a_edge10&#45;label"><a xlink:title="528.17kB">
<text text-anchor="middle" x="986.5" y="-948.8" font-family="Times-Roman" font-size="14.00"> 528.17kB</text>
</a>
</g>
</g>
<!-- N7 -->
<g id="node7" class="node">
<title>N7</title>
<g id="a_node7"><a xlink:title="os/exec.(*Cmd).Start.func1 (528.17kB)">
<polygon fill="#edeceb" stroke="#b2b0a9" points="1003.5,-1404 896.5,-1404 896.5,-1351 1003.5,-1351 1003.5,-1404"/>
<text text-anchor="middle" x="950" y="-1393.6" font-family="Times-Roman" font-size="8.00">exec</text>
<text text-anchor="middle" x="950" y="-1384.6" font-family="Times-Roman" font-size="8.00">(*Cmd)</text>
<text text-anchor="middle" x="950" y="-1375.6" font-family="Times-Roman" font-size="8.00">Start</text>
<text text-anchor="middle" x="950" y="-1366.6" font-family="Times-Roman" font-size="8.00">func1</text>
<text text-anchor="middle" x="950" y="-1357.6" font-family="Times-Roman" font-size="8.00">0 of 528.17kB (1.05%)</text>
</a>
</g>
</g>
<!-- N16 -->
<g id="node16" class="node">
<title>N16</title>
<g id="a_node16"><a xlink:title="os/exec.(*Cmd).writerDescriptor.func1 (528.17kB)">
<polygon fill="#edeceb" stroke="#b2b0a9" points="1003.5,-1268 896.5,-1268 896.5,-1215 1003.5,-1215 1003.5,-1268"/>
<text text-anchor="middle" x="950" y="-1257.6" font-family="Times-Roman" font-size="8.00">exec</text>
<text text-anchor="middle" x="950" y="-1248.6" font-family="Times-Roman" font-size="8.00">(*Cmd)</text>
<text text-anchor="middle" x="950" y="-1239.6" font-family="Times-Roman" font-size="8.00">writerDescriptor</text>
<text text-anchor="middle" x="950" y="-1230.6" font-family="Times-Roman" font-size="8.00">func1</text>
<text text-anchor="middle" x="950" y="-1221.6" font-family="Times-Roman" font-size="8.00">0 of 528.17kB (1.05%)</text>
</a>
</g>
</g>
<!-- N7&#45;&gt;N16 -->
<g id="edge26" class="edge">
<title>N7&#45;&gt;N16</title>
<g id="a_edge26"><a xlink:title="os/exec.(*Cmd).Start.func1 &#45;&gt; os/exec.(*Cmd).writerDescriptor.func1 (528.17kB)">
<path fill="none" stroke="#b2b0a9" d="M950,-1350.98C950,-1330.43 950,-1301.31 950,-1278.41"/>
<polygon fill="#b2b0a9" stroke="#b2b0a9" points="953.5,-1278.38 950,-1268.38 946.5,-1278.38 953.5,-1278.38"/>
</a>
</g>
<g id="a_edge26&#45;label"><a xlink:title="os/exec.(*Cmd).Start.func1 &#45;&gt; os/exec.(*Cmd).writerDescriptor.func1 (528.17kB)">
<text text-anchor="middle" x="986.5" y="-1289.8" font-family="Times-Roman" font-size="14.00"> 528.17kB</text>
</a>
</g>
</g>
<!-- N8&#45;&gt;N1 -->
<g id="edge12" class="edge">
<title>N8&#45;&gt;N1</title>
<g id="a_edge12"><a xlink:title="github.com/ovn&#45;org/ovn&#45;kubernetes/go&#45;controller/pkg/util.TestFindMaxArgsUsable.func1 &#45;&gt; github.com/ovn&#45;org/ovn&#45;kubernetes/go&#45;controller/pkg/util.findMaxArgsUsable (26339.92kB)">
<path fill="none" stroke="#b21f00" stroke-width="3" d="M545,-1104.98C545,-1093.43 545,-1078.61 545,-1064.43"/>
<polygon fill="#b21f00" stroke="#b21f00" stroke-width="3" points="548.5,-1064.28 545,-1054.28 541.5,-1064.28 548.5,-1064.28"/>
</a>
</g>
<g id="a_edge12&#45;label"><a xlink:title="github.com/ovn&#45;org/ovn&#45;kubernetes/go&#45;controller/pkg/util.TestFindMaxArgsUsable.func1 &#45;&gt; github.com/ovn&#45;org/ovn&#45;kubernetes/go&#45;controller/pkg/util.findMaxArgsUsable (26339.92kB)">
<text text-anchor="middle" x="590.5" y="-1075.8" font-family="Times-Roman" font-size="14.00"> 26339.92kB</text>
</a>
</g>
</g>
<!-- N9 -->
<g id="node9" class="node">
<title>N9</title>
<g id="a_node9"><a xlink:title="github.com/ovn&#45;org/ovn&#45;kubernetes/go&#45;controller/pkg/util.init.0 (23411.95kB)">
<polygon fill="#eddad5" stroke="#b22400" points="746,-1149 624,-1149 624,-1105 746,-1105 746,-1149"/>
<text text-anchor="middle" x="685" y="-1138.6" font-family="Times-Roman" font-size="8.00">util</text>
<text text-anchor="middle" x="685" y="-1129.6" font-family="Times-Roman" font-size="8.00">init</text>
<text text-anchor="middle" x="685" y="-1120.6" font-family="Times-Roman" font-size="8.00">0</text>
<text text-anchor="middle" x="685" y="-1111.6" font-family="Times-Roman" font-size="8.00">0 of 23411.95kB (46.56%)</text>
</a>
</g>
</g>
<!-- N9&#45;&gt;N1 -->
<g id="edge14" class="edge">
<title>N9&#45;&gt;N1</title>
<g id="a_edge14"><a xlink:title="github.com/ovn&#45;org/ovn&#45;kubernetes/go&#45;controller/pkg/util.init.0 &#45;&gt; github.com/ovn&#45;org/ovn&#45;kubernetes/go&#45;controller/pkg/util.findMaxArgsUsable (23411.95kB)">
<path fill="none" stroke="#b22400" stroke-width="3" d="M670.28,-1104.99C662.14,-1094.31 651.38,-1081.6 640,-1072 635.12,-1067.89 629.9,-1063.91 624.5,-1060.11"/>
<polygon fill="#b22400" stroke="#b22400" stroke-width="3" points="626.14,-1056.99 615.9,-1054.27 622.21,-1062.78 626.14,-1056.99"/>
</a>
</g>
<g id="a_edge14&#45;label"><a xlink:title="github.com/ovn&#45;org/ovn&#45;kubernetes/go&#45;controller/pkg/util.init.0 &#45;&gt; github.com/ovn&#45;org/ovn&#45;kubernetes/go&#45;controller/pkg/util.findMaxArgsUsable (23411.95kB)">
<text text-anchor="middle" x="701.5" y="-1075.8" font-family="Times-Roman" font-size="14.00"> 23411.95kB</text>
</a>
</g>
</g>
<!-- N10 -->
<g id="node10" class="node">
<title>N10</title>
<g id="a_node10"><a xlink:title="io.Copy (528.17kB)">
<polygon fill="#edeceb" stroke="#b2b0a9" points="1003.5,-1145 896.5,-1145 896.5,-1109 1003.5,-1109 1003.5,-1145"/>
<text text-anchor="middle" x="950" y="-1134.1" font-family="Times-Roman" font-size="8.00">io</text>
<text text-anchor="middle" x="950" y="-1125.1" font-family="Times-Roman" font-size="8.00">Copy</text>
<text text-anchor="middle" x="950" y="-1116.1" font-family="Times-Roman" font-size="8.00">0 of 528.17kB (1.05%)</text>
</a>
</g>
</g>
<!-- N10&#45;&gt;N6 -->
<g id="edge25" class="edge">
<title>N10&#45;&gt;N6</title>
<g id="a_edge25"><a xlink:title="io.Copy &#45;&gt; io.copyBuffer (528.17kB)">
<path fill="none" stroke="#b2b0a9" d="M950,-1108.97C950,-1092.73 950,-1067.88 950,-1048.11"/>
<polygon fill="#b2b0a9" stroke="#b2b0a9" points="953.5,-1048.02 950,-1038.02 946.5,-1048.02 953.5,-1048.02"/>
</a>
</g>
<g id="a_edge25&#45;label"><a xlink:title="io.Copy &#45;&gt; io.copyBuffer (528.17kB)">
<text text-anchor="middle" x="986.5" y="-1075.8" font-family="Times-Roman" font-size="14.00"> 528.17kB</text>
</a>
</g>
</g>
<!-- N11 -->
<g id="node11" class="node">
<title>N11</title>
<g id="a_node11"><a xlink:title="os.StartProcess (17410.75kB)">
<polygon fill="#eddbd5" stroke="#b23000" points="920,-527 798,-527 798,-491 920,-491 920,-527"/>
<text text-anchor="middle" x="859" y="-516.1" font-family="Times-Roman" font-size="8.00">os</text>
<text text-anchor="middle" x="859" y="-507.1" font-family="Times-Roman" font-size="8.00">StartProcess</text>
<text text-anchor="middle" x="859" y="-498.1" font-family="Times-Roman" font-size="8.00">0 of 17410.75kB (34.63%)</text>
</a>
</g>
</g>
<!-- N12 -->
<g id="node12" class="node">
<title>N12</title>
<g id="a_node12"><a xlink:title="os.startProcess (17410.75kB)">
<polygon fill="#eddbd5" stroke="#b23000" points="920,-440 798,-440 798,-404 920,-404 920,-440"/>
<text text-anchor="middle" x="859" y="-429.1" font-family="Times-Roman" font-size="8.00">os</text>
<text text-anchor="middle" x="859" y="-420.1" font-family="Times-Roman" font-size="8.00">startProcess</text>
<text text-anchor="middle" x="859" y="-411.1" font-family="Times-Roman" font-size="8.00">0 of 17410.75kB (34.63%)</text>
</a>
</g>
</g>
<!-- N11&#45;&gt;N12 -->
<g id="edge18" class="edge">
<title>N11&#45;&gt;N12</title>
<g id="a_edge18"><a xlink:title="os.StartProcess &#45;&gt; os.startProcess (17410.75kB)">
<path fill="none" stroke="#b23000" stroke-width="2" d="M859,-490.8C859,-479.16 859,-463.55 859,-450.24"/>
<polygon fill="#b23000" stroke="#b23000" stroke-width="2" points="862.5,-450.18 859,-440.18 855.5,-450.18 862.5,-450.18"/>
</a>
</g>
<g id="a_edge18&#45;label"><a xlink:title="os.StartProcess &#45;&gt; os.startProcess (17410.75kB)">
<text text-anchor="middle" x="904.5" y="-461.8" font-family="Times-Roman" font-size="14.00"> 17410.75kB</text>
</a>
</g>
</g>
<!-- N18 -->
<g id="node18" class="node">
<title>N18</title>
<g id="a_node18"><a xlink:title="syscall.StartProcess (17410.75kB)">
<polygon fill="#eddbd5" stroke="#b23000" points="920,-338 798,-338 798,-302 920,-302 920,-338"/>
<text text-anchor="middle" x="859" y="-327.1" font-family="Times-Roman" font-size="8.00">syscall</text>
<text text-anchor="middle" x="859" y="-318.1" font-family="Times-Roman" font-size="8.00">StartProcess</text>
<text text-anchor="middle" x="859" y="-309.1" font-family="Times-Roman" font-size="8.00">0 of 17410.75kB (34.63%)</text>
</a>
</g>
</g>
<!-- N12&#45;&gt;N18 -->
<g id="edge19" class="edge">
<title>N12&#45;&gt;N18</title>
<g id="a_edge19"><a xlink:title="os.startProcess &#45;&gt; syscall.StartProcess (17410.75kB)">
<path fill="none" stroke="#b23000" stroke-width="2" d="M859,-403.58C859,-388.38 859,-366.07 859,-348.46"/>
<polygon fill="#b23000" stroke="#b23000" stroke-width="2" points="862.5,-348.22 859,-338.22 855.5,-348.22 862.5,-348.22"/>
</a>
</g>
<g id="a_edge19&#45;label"><a xlink:title="os.startProcess &#45;&gt; syscall.StartProcess (17410.75kB)">
<text text-anchor="middle" x="904.5" y="-374.8" font-family="Times-Roman" font-size="14.00"> 17410.75kB</text>
<text text-anchor="middle" x="904.5" y="-359.8" font-family="Times-Roman" font-size="14.00"> (inline)</text>
</a>
</g>
</g>
<!-- N14 -->
<g id="node14" class="node">
<title>N14</title>
<g id="a_node14"><a xlink:title="os/exec.(*Cmd).Run (17410.75kB)">
<polygon fill="#eddbd5" stroke="#b23000" points="920,-717 798,-717 798,-673 920,-673 920,-717"/>
<text text-anchor="middle" x="859" y="-706.6" font-family="Times-Roman" font-size="8.00">exec</text>
<text text-anchor="middle" x="859" y="-697.6" font-family="Times-Roman" font-size="8.00">(*Cmd)</text>
<text text-anchor="middle" x="859" y="-688.6" font-family="Times-Roman" font-size="8.00">Run</text>
<text text-anchor="middle" x="859" y="-679.6" font-family="Times-Roman" font-size="8.00">0 of 17410.75kB (34.63%)</text>
</a>
</g>
</g>
<!-- N13&#45;&gt;N14 -->
<g id="edge20" class="edge">
<title>N13&#45;&gt;N14</title>
<g id="a_edge20"><a xlink:title="os/exec.(*Cmd).Output &#45;&gt; os/exec.(*Cmd).Run (17410.75kB)">
<path fill="none" stroke="#b23000" stroke-width="2" d="M859,-788.82C859,-771.55 859,-746.89 859,-727.33"/>
<polygon fill="#b23000" stroke="#b23000" stroke-width="2" points="862.5,-727.06 859,-717.06 855.5,-727.06 862.5,-727.06"/>
</a>
</g>
<g id="a_edge20&#45;label"><a xlink:title="os/exec.(*Cmd).Output &#45;&gt; os/exec.(*Cmd).Run (17410.75kB)">
<text text-anchor="middle" x="904.5" y="-738.8" font-family="Times-Roman" font-size="14.00"> 17410.75kB</text>
</a>
</g>
</g>
<!-- N15 -->
<g id="node15" class="node">
<title>N15</title>
<g id="a_node15"><a xlink:title="os/exec.(*Cmd).Start (17410.75kB)">
<polygon fill="#eddbd5" stroke="#b23000" points="920,-622 798,-622 798,-578 920,-578 920,-622"/>
<text text-anchor="middle" x="859" y="-611.6" font-family="Times-Roman" font-size="8.00">exec</text>
<text text-anchor="middle" x="859" y="-602.6" font-family="Times-Roman" font-size="8.00">(*Cmd)</text>
<text text-anchor="middle" x="859" y="-593.6" font-family="Times-Roman" font-size="8.00">Start</text>
<text text-anchor="middle" x="859" y="-584.6" font-family="Times-Roman" font-size="8.00">0 of 17410.75kB (34.63%)</text>
</a>
</g>
</g>
<!-- N14&#45;&gt;N15 -->
<g id="edge21" class="edge">
<title>N14&#45;&gt;N15</title>
<g id="a_edge21"><a xlink:title="os/exec.(*Cmd).Run &#45;&gt; os/exec.(*Cmd).Start (17410.75kB)">
<path fill="none" stroke="#b23000" stroke-width="2" d="M859,-672.9C859,-660.89 859,-645.62 859,-632.24"/>
<polygon fill="#b23000" stroke="#b23000" stroke-width="2" points="862.5,-632.02 859,-622.02 855.5,-632.02 862.5,-632.02"/>
</a>
</g>
<g id="a_edge21&#45;label"><a xlink:title="os/exec.(*Cmd).Run &#45;&gt; os/exec.(*Cmd).Start (17410.75kB)">
<text text-anchor="middle" x="904.5" y="-643.8" font-family="Times-Roman" font-size="14.00"> 17410.75kB</text>
</a>
</g>
</g>
<!-- N15&#45;&gt;N11 -->
<g id="edge22" class="edge">
<title>N15&#45;&gt;N11</title>
<g id="a_edge22"><a xlink:title="os/exec.(*Cmd).Start &#45;&gt; os.StartProcess (17410.75kB)">
<path fill="none" stroke="#b23000" stroke-width="2" d="M859,-577.91C859,-565.78 859,-550.41 859,-537.36"/>
<polygon fill="#b23000" stroke="#b23000" stroke-width="2" points="862.5,-537.07 859,-527.07 855.5,-537.07 862.5,-537.07"/>
</a>
</g>
<g id="a_edge22&#45;label"><a xlink:title="os/exec.(*Cmd).Start &#45;&gt; os.StartProcess (17410.75kB)">
<text text-anchor="middle" x="904.5" y="-548.8" font-family="Times-Roman" font-size="14.00"> 17410.75kB</text>
</a>
</g>
</g>
<!-- N16&#45;&gt;N10 -->
<g id="edge27" class="edge">
<title>N16&#45;&gt;N10</title>
<g id="a_edge27"><a xlink:title="os/exec.(*Cmd).writerDescriptor.func1 &#45;&gt; io.Copy (528.17kB)">
<path fill="none" stroke="#b2b0a9" d="M950,-1214.97C950,-1197.17 950,-1173.45 950,-1155.28"/>
<polygon fill="#b2b0a9" stroke="#b2b0a9" points="953.5,-1155.05 950,-1145.05 946.5,-1155.05 953.5,-1155.05"/>
</a>
</g>
<g id="a_edge27&#45;label"><a xlink:title="os/exec.(*Cmd).writerDescriptor.func1 &#45;&gt; io.Copy (528.17kB)">
<text text-anchor="middle" x="986.5" y="-1185.8" font-family="Times-Roman" font-size="14.00"> 528.17kB</text>
<text text-anchor="middle" x="986.5" y="-1170.8" font-family="Times-Roman" font-size="14.00"> (inline)</text>
</a>
</g>
</g>
<!-- N17&#45;&gt;N9 -->
<g id="edge15" class="edge">
<title>N17&#45;&gt;N9</title>
<g id="a_edge15"><a xlink:title="runtime.doInit &#45;&gt; github.com/ovn&#45;org/ovn&#45;kubernetes/go&#45;controller/pkg/util.init.0 (23411.95kB)">
<path fill="none" stroke="#b22400" stroke-width="3" d="M685,-1223.41C685,-1206.45 685,-1180.07 685,-1159.34"/>
<polygon fill="#b22400" stroke="#b22400" stroke-width="3" points="688.5,-1159.09 685,-1149.09 681.5,-1159.09 688.5,-1159.09"/>
</a>
</g>
<g id="a_edge15&#45;label"><a xlink:title="runtime.doInit &#45;&gt; github.com/ovn&#45;org/ovn&#45;kubernetes/go&#45;controller/pkg/util.init.0 (23411.95kB)">
<text text-anchor="middle" x="730.5" y="-1178.3" font-family="Times-Roman" font-size="14.00"> 23411.95kB</text>
</a>
</g>
</g>
<!-- N19 -->
<g id="node19" class="node">
<title>N19</title>
<g id="a_node19"><a xlink:title="syscall.forkExec (17410.75kB)">
<polygon fill="#eddbd5" stroke="#b23000" points="920,-251 798,-251 798,-215 920,-215 920,-251"/>
<text text-anchor="middle" x="859" y="-240.1" font-family="Times-Roman" font-size="8.00">syscall</text>
<text text-anchor="middle" x="859" y="-231.1" font-family="Times-Roman" font-size="8.00">forkExec</text>
<text text-anchor="middle" x="859" y="-222.1" font-family="Times-Roman" font-size="8.00">0 of 17410.75kB (34.63%)</text>
</a>
</g>
</g>
<!-- N18&#45;&gt;N19 -->
<g id="edge23" class="edge">
<title>N18&#45;&gt;N19</title>
<g id="a_edge23"><a xlink:title="syscall.StartProcess &#45;&gt; syscall.forkExec (17410.75kB)">
<path fill="none" stroke="#b23000" stroke-width="2" d="M859,-301.8C859,-290.16 859,-274.55 859,-261.24"/>
<polygon fill="#b23000" stroke="#b23000" stroke-width="2" points="862.5,-261.18 859,-251.18 855.5,-261.18 862.5,-261.18"/>
</a>
</g>
<g id="a_edge23&#45;label"><a xlink:title="syscall.StartProcess &#45;&gt; syscall.forkExec (17410.75kB)">
<text text-anchor="middle" x="904.5" y="-272.8" font-family="Times-Roman" font-size="14.00"> 17410.75kB</text>
</a>
</g>
</g>
<!-- N19&#45;&gt;N3 -->
<g id="edge24" class="edge">
<title>N19&#45;&gt;N3</title>
<g id="a_edge24"><a xlink:title="syscall.forkExec &#45;&gt; syscall.SlicePtrFromStrings (17410.75kB)">
<path fill="none" stroke="#b23000" stroke-width="2" d="M859,-214.58C859,-203.56 859,-188.73 859,-174.39"/>
<polygon fill="#b23000" stroke="#b23000" stroke-width="2" points="862.5,-174.09 859,-164.09 855.5,-174.09 862.5,-174.09"/>
</a>
</g>
<g id="a_edge24&#45;label"><a xlink:title="syscall.forkExec &#45;&gt; syscall.SlicePtrFromStrings (17410.75kB)">
<text text-anchor="middle" x="904.5" y="-185.8" font-family="Times-Roman" font-size="14.00"> 17410.75kB</text>
</a>
</g>
</g>
</g>
</g></svg>
