<?xml version="1.0" encoding="UTF-8" standalone="no"?>
<!DOCTYPE svg PUBLIC "-//W3C//DTD SVG 1.1//EN"
 "http://www.w3.org/Graphics/SVG/1.1/DTD/svg11.dtd">
<!-- Generated by graphviz version 2.44.0 (0)
 -->
<!-- Title: util.test Pages: 1 -->
<svg width="100%" height="100%" xmlns="http://www.w3.org/2000/svg" xmlns:xlink="http://www.w3.org/1999/xlink">
<script type="text/ecmascript"><![CDATA[
/**
 *  SVGPan library 1.2.2
 * ======================
 *
 * Given an unique existing element with id "viewport" (or when missing, the
 * first g-element), including the library into any SVG adds the following
 * capabilities:
 *
 *  - Mouse panning
 *  - Mouse zooming (using the wheel)
 *  - Object dragging
 *
 * You can configure the behaviour of the pan/zoom/drag with the variables
 * listed in the CONFIGURATION section of this file.
 *
 * Known issues:
 *
 *  - Zooming (while panning) on Safari has still some issues
 *
 * Releases:
 *
 * 1.2.2, Tue Aug 30 17:21:56 CEST 2011, Andrea Leofreddi
 *	- Fixed viewBox on root tag (#7)
 *	- Improved zoom speed (#2)
 *
 * 1.2.1, Mon Jul  4 00:33:18 CEST 2011, Andrea Leofreddi
 *	- Fixed a regression with mouse wheel (now working on Firefox 5)
 *	- Working with viewBox attribute (#4)
 *	- Added "use strict;" and fixed resulting warnings (#5)
 *	- Added configuration variables, dragging is disabled by default (#3)
 *
 * 1.2, Sat Mar 20 08:42:50 GMT 2010, Zeng Xiaohui
 *	Fixed a bug with browser mouse handler interaction
 *
 * 1.1, Wed Feb  3 17:39:33 GMT 2010, Zeng Xiaohui
 *	Updated the zoom code to support the mouse wheel on Safari/Chrome
 *
 * 1.0, Andrea Leofreddi
 *	First release
 *
 * This code is licensed under the following BSD license:
 *
 * Copyright 2009-2017 Andrea Leofreddi <a.leofreddi@vleo.net>. All rights reserved.
 *
 * Redistribution and use in source and binary forms, with or without modification, are
 * permitted provided that the following conditions are met:
 *
 *    1. Redistributions of source code must retain the above copyright
 *       notice, this list of conditions and the following disclaimer.
 *    2. Redistributions in binary form must reproduce the above copyright
 *       notice, this list of conditions and the following disclaimer in the
 *       documentation and/or other materials provided with the distribution.
 *    3. Neither the name of the copyright holder nor the names of its
 *       contributors may be used to endorse or promote products derived from
 *       this software without specific prior written permission.
 *
 * THIS SOFTWARE IS PROVIDED BY COPYRIGHT HOLDERS AND CONTRIBUTORS ''AS IS'' AND ANY EXPRESS
 * OR IMPLIED WARRANTIES, INCLUDING, BUT NOT LIMITED TO, THE IMPLIED WARRANTIES OF MERCHANTABILITY
 * AND FITNESS FOR A PARTICULAR PURPOSE ARE DISCLAIMED. IN NO EVENT SHALL COPYRIGHT HOLDERS OR
 * CONTRIBUTORS BE LIABLE FOR ANY DIRECT, INDIRECT, INCIDENTAL, SPECIAL, EXEMPLARY, OR
 * CONSEQUENTIAL DAMAGES (INCLUDING, BUT NOT LIMITED TO, PROCUREMENT OF SUBSTITUTE GOODS OR
 * SERVICES; LOSS OF USE, DATA, OR PROFITS; OR BUSINESS INTERRUPTION) HOWEVER CAUSED AND ON
 * ANY THEORY OF LIABILITY, WHETHER IN CONTRACT, STRICT LIABILITY, OR TORT (INCLUDING
 * NEGLIGENCE OR OTHERWISE) ARISING IN ANY WAY OUT OF THE USE OF THIS SOFTWARE, EVEN IF
 * ADVISED OF THE POSSIBILITY OF SUCH DAMAGE.
 *
 * The views and conclusions contained in the software and documentation are those of the
 * authors and should not be interpreted as representing official policies, either expressed
 * or implied, of Andrea Leofreddi.
 */

"use strict";

/// CONFIGURATION
/// ====>

var enablePan = 1; // 1 or 0: enable or disable panning (default enabled)
var enableZoom = 1; // 1 or 0: enable or disable zooming (default enabled)
var enableDrag = 0; // 1 or 0: enable or disable dragging (default disabled)
var zoomScale = 0.2; // Zoom sensitivity

/// <====
/// END OF CONFIGURATION

var root = document.documentElement;

var state = 'none', svgRoot = null, stateTarget, stateOrigin, stateTf;

setupHandlers(root);

/**
 * Register handlers
 */
function setupHandlers(root){
	setAttributes(root, {
		"onmouseup" : "handleMouseUp(evt)",
		"onmousedown" : "handleMouseDown(evt)",
		"onmousemove" : "handleMouseMove(evt)",
		//"onmouseout" : "handleMouseUp(evt)", // Decomment this to stop the pan functionality when dragging out of the SVG element
	});

	if(navigator.userAgent.toLowerCase().indexOf('webkit') >= 0)
		window.addEventListener('mousewheel', handleMouseWheel, false); // Chrome/Safari
	else
		window.addEventListener('DOMMouseScroll', handleMouseWheel, false); // Others
}

/**
 * Retrieves the root element for SVG manipulation. The element is then cached into the svgRoot global variable.
 */
function getRoot(root) {
	if(svgRoot == null) {
		var r = root.getElementById("viewport") ? root.getElementById("viewport") : root.documentElement, t = r;

		while(t != root) {
			if(t.getAttribute("viewBox")) {
				setCTM(r, t.getCTM());

				t.removeAttribute("viewBox");
			}

			t = t.parentNode;
		}

		svgRoot = r;
	}

	return svgRoot;
}

/**
 * Instance an SVGPoint object with given event coordinates.
 */
function getEventPoint(evt) {
	var p = root.createSVGPoint();

	p.x = evt.clientX;
	p.y = evt.clientY;

	return p;
}

/**
 * Sets the current transform matrix of an element.
 */
function setCTM(element, matrix) {
	var s = "matrix(" + matrix.a + "," + matrix.b + "," + matrix.c + "," + matrix.d + "," + matrix.e + "," + matrix.f + ")";

	element.setAttribute("transform", s);
}

/**
 * Dumps a matrix to a string (useful for debug).
 */
function dumpMatrix(matrix) {
	var s = "[ " + matrix.a + ", " + matrix.c + ", " + matrix.e + "\n  " + matrix.b + ", " + matrix.d + ", " + matrix.f + "\n  0, 0, 1 ]";

	return s;
}

/**
 * Sets attributes of an element.
 */
function setAttributes(element, attributes){
	for (var i in attributes)
		element.setAttributeNS(null, i, attributes[i]);
}

/**
 * Handle mouse wheel event.
 */
function handleMouseWheel(evt) {
	if(!enableZoom)
		return;

	if(evt.preventDefault)
		evt.preventDefault();

	evt.returnValue = false;

	var svgDoc = evt.target.ownerDocument;

	var delta;

	if(evt.wheelDelta)
		delta = evt.wheelDelta / 360; // Chrome/Safari
	else
		delta = evt.detail / -9; // Mozilla

	var z = Math.pow(1 + zoomScale, delta);

	var g = getRoot(svgDoc);
	
	var p = getEventPoint(evt);

	p = p.matrixTransform(g.getCTM().inverse());

	// Compute new scale matrix in current mouse position
	var k = root.createSVGMatrix().translate(p.x, p.y).scale(z).translate(-p.x, -p.y);

        setCTM(g, g.getCTM().multiply(k));

	if(typeof(stateTf) == "undefined")
		stateTf = g.getCTM().inverse();

	stateTf = stateTf.multiply(k.inverse());
}

/**
 * Handle mouse move event.
 */
function handleMouseMove(evt) {
	if(evt.preventDefault)
		evt.preventDefault();

	evt.returnValue = false;

	var svgDoc = evt.target.ownerDocument;

	var g = getRoot(svgDoc);

	if(state == 'pan' && enablePan) {
		// Pan mode
		var p = getEventPoint(evt).matrixTransform(stateTf);

		setCTM(g, stateTf.inverse().translate(p.x - stateOrigin.x, p.y - stateOrigin.y));
	} else if(state == 'drag' && enableDrag) {
		// Drag mode
		var p = getEventPoint(evt).matrixTransform(g.getCTM().inverse());

		setCTM(stateTarget, root.createSVGMatrix().translate(p.x - stateOrigin.x, p.y - stateOrigin.y).multiply(g.getCTM().inverse()).multiply(stateTarget.getCTM()));

		stateOrigin = p;
	}
}

/**
 * Handle click event.
 */
function handleMouseDown(evt) {
	if(evt.preventDefault)
		evt.preventDefault();

	evt.returnValue = false;

	var svgDoc = evt.target.ownerDocument;

	var g = getRoot(svgDoc);

	if(
		evt.target.tagName == "svg"
		|| !enableDrag // Pan anyway when drag is disabled and the user clicked on an element
	) {
		// Pan mode
		state = 'pan';

		stateTf = g.getCTM().inverse();

		stateOrigin = getEventPoint(evt).matrixTransform(stateTf);
	} else {
		// Drag mode
		state = 'drag';

		stateTarget = evt.target;

		stateTf = g.getCTM().inverse();

		stateOrigin = getEventPoint(evt).matrixTransform(stateTf);
	}
}

/**
 * Handle mouse button release event.
 */
function handleMouseUp(evt) {
	if(evt.preventDefault)
		evt.preventDefault();

	evt.returnValue = false;

	var svgDoc = evt.target.ownerDocument;

	if(state == 'pan' || state == 'drag') {
		// Quit pan mode
		state = '';
	}
}
]]></script><g id="viewport" transform="scale(0.5,0.5) translate(0,0)"><g id="graph0" class="graph" transform="scale(1 1) rotate(0) translate(4 1434)">
<title>util.test</title>
<polygon fill="white" stroke="transparent" points="-4,4 -4,-1434 1000,-1434 1000,4 -4,4"/>
<g id="clust1" class="cluster">
<title>cluster_L</title>
<polygon fill="none" stroke="black" points="8,-1271 8,-1422 598,-1422 598,-1271 8,-1271"/>
</g>
<!-- File: util.test -->
<g id="node1" class="node">
<title>File: util.test</title>
<g id="a_node1"><a xlink:title="util.test">
<polygon fill="#f8f8f8" stroke="black" points="589.5,-1414 16.5,-1414 16.5,-1279 589.5,-1279 589.5,-1414"/>
<text text-anchor="start" x="24.5" y="-1397.2" font-family="Times-Roman" font-size="16.00">File: util.test</text>
<text text-anchor="start" x="24.5" y="-1379.2" font-family="Times-Roman" font-size="16.00">Type: alloc_space</text>
<text text-anchor="start" x="24.5" y="-1361.2" font-family="Times-Roman" font-size="16.00">Time: Jun 9, 2021 at 2:36pm (EDT)</text>
<text text-anchor="start" x="24.5" y="-1343.2" font-family="Times-Roman" font-size="16.00">Showing nodes accounting for 523.63MB, 99.71% of 525.13MB total</text>
<text text-anchor="start" x="24.5" y="-1325.2" font-family="Times-Roman" font-size="16.00">Dropped 12 nodes (cum &lt;= 2.63MB)</text>
<text text-anchor="start" x="24.5" y="-1288.2" font-family="Times-Roman" font-size="16.00">See https://git.io/JfYMW for how to read the graph</text>
</a>
</g>
</g>
<!-- N1 -->
<g id="node1" class="node">
<title>N1</title>
<g id="a_node1"><a xlink:title="github.com/ovn&#45;org/ovn&#45;kubernetes/go&#45;controller/pkg/util.findMaxArgsUsable (524.63MB)">
<polygon fill="#edd5d5" stroke="#b20000" points="620.5,-1046 445.5,-1046 445.5,-978 620.5,-978 620.5,-1046"/>
<text text-anchor="middle" x="533" y="-1030.8" font-family="Times-Roman" font-size="14.00">util</text>
<text text-anchor="middle" x="533" y="-1015.8" font-family="Times-Roman" font-size="14.00">findMaxArgsUsable</text>
<text text-anchor="middle" x="533" y="-1000.8" font-family="Times-Roman" font-size="14.00">32MB (6.09%)</text>
<text text-anchor="middle" x="533" y="-985.8" font-family="Times-Roman" font-size="14.00">of 524.63MB (99.90%)</text>
</a>
</g>
</g>
<!-- NN1_0 -->
<g id="NN1_0" class="node">
<title>NN1_0</title>
<g id="a_NN1_0"><a xlink:title="32MB">
<polygon fill="#f8f8f8" stroke="black" points="579,-927 491,-927 487,-923 487,-891 575,-891 579,-895 579,-927"/>
<polyline fill="none" stroke="black" points="575,-923 487,-923 "/>
<polyline fill="none" stroke="black" points="575,-923 575,-891 "/>
<polyline fill="none" stroke="black" points="575,-923 579,-927 "/>
<text text-anchor="middle" x="533" y="-907.1" font-family="Times-Roman" font-size="8.00">23.33MB..32.01MB</text>
</a>
</g>
</g>
<!-- N1&#45;&gt;NN1_0 -->
<g id="edge1" class="edge">
<title>N1&#45;&gt;NN1_0</title>
<g id="a_edge1"><a xlink:title="32MB">
<path fill="none" stroke="black" d="M533,-977.93C533,-964.85 533,-949.99 533,-937.51"/>
<polygon fill="black" stroke="black" points="536.5,-937.26 533,-927.26 529.5,-937.26 536.5,-937.26"/>
</a>
</g>
<g id="a_edge1&#45;label"><a xlink:title="32MB">
<text text-anchor="middle" x="555.5" y="-948.8" font-family="Times-Roman" font-size="14.00"> 32MB</text>
</a>
</g>
</g>
<!-- N2 -->
<g id="node2" class="node">
<title>N2</title>
<g id="a_node2"><a xlink:title="os/exec.Command (305.54MB)">
<polygon fill="#edd8d5" stroke="#b21a00" points="741,-854 489,-854 489,-768 741,-768 741,-854"/>
<text text-anchor="middle" x="615" y="-830.8" font-family="Times-Roman" font-size="24.00">exec</text>
<text text-anchor="middle" x="615" y="-804.8" font-family="Times-Roman" font-size="24.00">Command</text>
<text text-anchor="middle" x="615" y="-778.8" font-family="Times-Roman" font-size="24.00">305.54MB (58.18%)</text>
</a>
</g>
</g>
<!-- N1&#45;&gt;N2 -->
<g id="edge12" class="edge">
<title>N1&#45;&gt;N2</title>
<g id="a_edge12"><a xlink:title="github.com/ovn&#45;org/ovn&#45;kubernetes/go&#45;controller/pkg/util.findMaxArgsUsable &#45;&gt; os/exec.Command (305.54MB)">
<path fill="none" stroke="#b21a00" stroke-width="3" d="M569.55,-977.93C574.28,-972.33 578.63,-966.28 582,-960 597.81,-930.53 606.05,-893.87 610.35,-864.41"/>
<polygon fill="#b21a00" stroke="#b21a00" stroke-width="3" points="613.84,-864.69 611.71,-854.31 606.91,-863.75 613.84,-864.69"/>
</a>
</g>
<g id="a_edge12&#45;label"><a xlink:title="github.com/ovn&#45;org/ovn&#45;kubernetes/go&#45;controller/pkg/util.findMaxArgsUsable &#45;&gt; os/exec.Command (305.54MB)">
<text text-anchor="middle" x="644" y="-905.3" font-family="Times-Roman" font-size="14.00"> 305.54MB</text>
</a>
</g>
</g>
<!-- N10 -->
<g id="node10" class="node">
<title>N10</title>
<g id="a_node10"><a xlink:title="os/exec.(*Cmd).Output (187.10MB)">
<polygon fill="#eddbd5" stroke="#b22f00" points="873,-833 759,-833 759,-789 873,-789 873,-833"/>
<text text-anchor="middle" x="816" y="-822.6" font-family="Times-Roman" font-size="8.00">exec</text>
<text text-anchor="middle" x="816" y="-813.6" font-family="Times-Roman" font-size="8.00">(*Cmd)</text>
<text text-anchor="middle" x="816" y="-804.6" font-family="Times-Roman" font-size="8.00">Output</text>
<text text-anchor="middle" x="816" y="-795.6" font-family="Times-Roman" font-size="8.00">0 of 187.10MB (35.63%)</text>
</a>
</g>
</g>
<!-- N1&#45;&gt;N10 -->
<g id="edge13" class="edge">
<title>N1&#45;&gt;N10</title>
<g id="a_edge13"><a xlink:title="github.com/ovn&#45;org/ovn&#45;kubernetes/go&#45;controller/pkg/util.findMaxArgsUsable &#45;&gt; os/exec.(*Cmd).Output (187.10MB)">
<path fill="none" stroke="#b22f00" stroke-width="2" d="M600.83,-977.92C628.11,-963.56 659.36,-945.75 686,-927 723.52,-900.6 762.39,-864.93 787.74,-840.35"/>
<polygon fill="#b22f00" stroke="#b22f00" stroke-width="2" points="790.45,-842.59 795.15,-833.1 785.56,-837.59 790.45,-842.59"/>
</a>
</g>
<g id="a_edge13&#45;label"><a xlink:title="github.com/ovn&#45;org/ovn&#45;kubernetes/go&#45;controller/pkg/util.findMaxArgsUsable &#45;&gt; os/exec.(*Cmd).Output (187.10MB)">
<text text-anchor="middle" x="769" y="-905.3" font-family="Times-Roman" font-size="14.00"> 187.10MB</text>
</a>
</g>
</g>
<!-- NN2_0 -->
<g id="NN2_0" class="node">
<title>NN2_0</title>
<g id="a_NN2_0"><a xlink:title="218.80MB">
<polygon fill="#f8f8f8" stroke="black" points="474,-713 392,-713 388,-709 388,-677 470,-677 474,-681 474,-713"/>
<polyline fill="none" stroke="black" points="470,-709 388,-709 "/>
<polyline fill="none" stroke="black" points="470,-709 470,-677 "/>
<polyline fill="none" stroke="black" points="470,-709 474,-713 "/>
<text text-anchor="middle" x="431" y="-693.1" font-family="Times-Roman" font-size="8.00">2.92MB..23.33MB</text>
</a>
</g>
</g>
<!-- N2&#45;&gt;NN2_0 -->
<g id="edge2" class="edge">
<title>N2&#45;&gt;NN2_0</title>
<g id="a_edge2"><a xlink:title="218.80MB">
<path fill="none" stroke="black" d="M488.64,-770.26C478.38,-764.36 468.65,-757.64 460,-750 451.63,-742.6 445.24,-732.19 440.63,-722.48"/>
<polygon fill="black" stroke="black" points="443.77,-720.93 436.59,-713.14 437.34,-723.71 443.77,-720.93"/>
</a>
</g>
<g id="a_edge2&#45;label"><a xlink:title="218.80MB">
<text text-anchor="middle" x="498" y="-738.8" font-family="Times-Roman" font-size="14.00"> 218.80MB</text>
</a>
</g>
</g>
<!-- NN2_1 -->
<g id="NN2_1" class="node">
<title>NN2_1</title>
<g id="a_NN2_1"><a xlink:title="32.01MB">
<polygon fill="#f8f8f8" stroke="black" points="557,-713 507,-713 503,-709 503,-677 553,-677 557,-681 557,-713"/>
<polyline fill="none" stroke="black" points="553,-709 503,-709 "/>
<polyline fill="none" stroke="black" points="553,-709 553,-677 "/>
<polyline fill="none" stroke="black" points="553,-709 557,-713 "/>
<text text-anchor="middle" x="530" y="-693.1" font-family="Times-Roman" font-size="8.00">32.01MB</text>
</a>
</g>
</g>
<!-- N2&#45;&gt;NN2_1 -->
<g id="edge3" class="edge">
<title>N2&#45;&gt;NN2_1</title>
<g id="a_edge3"><a xlink:title="32.01MB">
<path fill="none" stroke="black" d="M561.1,-767.73C555.88,-762.15 551.03,-756.2 547,-750 541.71,-741.86 537.97,-731.96 535.37,-722.87"/>
<polygon fill="black" stroke="black" points="538.74,-721.92 532.9,-713.08 531.96,-723.64 538.74,-721.92"/>
</a>
</g>
<g id="a_edge3&#45;label"><a xlink:title="32.01MB">
<text text-anchor="middle" x="580.5" y="-738.8" font-family="Times-Roman" font-size="14.00"> 32.01MB</text>
</a>
</g>
</g>
<!-- NN2_2 -->
<g id="NN2_2" class="node">
<title>NN2_2</title>
<g id="a_NN2_2"><a xlink:title="28.80MB">
<polygon fill="#f8f8f8" stroke="black" points="647,-713 597,-713 593,-709 593,-677 643,-677 647,-681 647,-713"/>
<polyline fill="none" stroke="black" points="643,-709 593,-709 "/>
<polyline fill="none" stroke="black" points="643,-709 643,-677 "/>
<polyline fill="none" stroke="black" points="643,-709 647,-713 "/>
<text text-anchor="middle" x="620" y="-693.1" font-family="Times-Roman" font-size="8.00">28.80MB</text>
</a>
</g>
</g>
<!-- N2&#45;&gt;NN2_2 -->
<g id="edge4" class="edge">
<title>N2&#45;&gt;NN2_2</title>
<g id="a_edge4"><a xlink:title="28.80MB">
<path fill="none" stroke="black" d="M616.85,-767.87C617.5,-753.11 618.21,-736.91 618.79,-723.63"/>
<polygon fill="black" stroke="black" points="622.3,-723.41 619.24,-713.27 615.31,-723.1 622.3,-723.41"/>
</a>
</g>
<g id="a_edge4&#45;label"><a xlink:title="28.80MB">
<text text-anchor="middle" x="652.5" y="-738.8" font-family="Times-Roman" font-size="14.00"> 28.80MB</text>
</a>
</g>
</g>
<!-- NN2_3 -->
<g id="NN2_3" class="node">
<title>NN2_3</title>
<g id="a_NN2_3"><a xlink:title="25.92MB">
<polygon fill="#f8f8f8" stroke="black" points="737,-713 687,-713 683,-709 683,-677 733,-677 737,-681 737,-713"/>
<polyline fill="none" stroke="black" points="733,-709 683,-709 "/>
<polyline fill="none" stroke="black" points="733,-709 733,-677 "/>
<polyline fill="none" stroke="black" points="733,-709 737,-713 "/>
<text text-anchor="middle" x="710" y="-693.1" font-family="Times-Roman" font-size="8.00">25.92MB</text>
</a>
</g>
</g>
<!-- N2&#45;&gt;NN2_3 -->
<g id="edge5" class="edge">
<title>N2&#45;&gt;NN2_3</title>
<g id="a_edge5"><a xlink:title="25.92MB">
<path fill="none" stroke="black" d="M672.38,-767.74C678.07,-762.16 683.43,-756.21 688,-750 694,-741.86 698.66,-731.85 702.12,-722.67"/>
<polygon fill="black" stroke="black" points="705.45,-723.76 705.41,-713.17 698.84,-721.47 705.45,-723.76"/>
</a>
</g>
<g id="a_edge5&#45;label"><a xlink:title="25.92MB">
<text text-anchor="middle" x="729.5" y="-738.8" font-family="Times-Roman" font-size="14.00"> 25.92MB</text>
</a>
</g>
</g>
<!-- N3 -->
<g id="node3" class="node">
<title>N3</title>
<g id="a_node3"><a xlink:title="testing.tRunner (503.41MB)">
<polygon fill="#edd5d5" stroke="#b20200" points="590,-1228 476,-1228 476,-1192 590,-1192 590,-1228"/>
<text text-anchor="middle" x="533" y="-1217.1" font-family="Times-Roman" font-size="8.00">testing</text>
<text text-anchor="middle" x="533" y="-1208.1" font-family="Times-Roman" font-size="8.00">tRunner</text>
<text text-anchor="middle" x="533" y="-1199.1" font-family="Times-Roman" font-size="8.00">0 of 503.41MB (95.86%)</text>
</a>
</g>
</g>
<!-- N6 -->
<g id="node6" class="node">
<title>N6</title>
<g id="a_node6"><a xlink:title="github.com/ovn&#45;org/ovn&#45;kubernetes/go&#45;controller/pkg/util.TestFindMaxArgsUsable.func1 (503.41MB)">
<polygon fill="#edd5d5" stroke="#b20200" points="590,-1141 476,-1141 476,-1097 590,-1097 590,-1141"/>
<text text-anchor="middle" x="533" y="-1130.6" font-family="Times-Roman" font-size="8.00">util</text>
<text text-anchor="middle" x="533" y="-1121.6" font-family="Times-Roman" font-size="8.00">TestFindMaxArgsUsable</text>
<text text-anchor="middle" x="533" y="-1112.6" font-family="Times-Roman" font-size="8.00">func1</text>
<text text-anchor="middle" x="533" y="-1103.6" font-family="Times-Roman" font-size="8.00">0 of 503.41MB (95.86%)</text>
</a>
</g>
</g>
<!-- N3&#45;&gt;N6 -->
<g id="edge11" class="edge">
<title>N3&#45;&gt;N6</title>
<g id="a_edge11"><a xlink:title="testing.tRunner &#45;&gt; github.com/ovn&#45;org/ovn&#45;kubernetes/go&#45;controller/pkg/util.TestFindMaxArgsUsable.func1 (503.41MB)">
<path fill="none" stroke="#b20200" stroke-width="5" d="M533,-1191.84C533,-1180.44 533,-1165.13 533,-1151.58"/>
<polygon fill="#b20200" stroke="#b20200" stroke-width="5" points="537.38,-1151.19 533,-1141.19 528.63,-1151.19 537.38,-1151.19"/>
</a>
</g>
<g id="a_edge11&#45;label"><a xlink:title="testing.tRunner &#45;&gt; github.com/ovn&#45;org/ovn&#45;kubernetes/go&#45;controller/pkg/util.TestFindMaxArgsUsable.func1 (503.41MB)">
<text text-anchor="middle" x="571" y="-1162.8" font-family="Times-Roman" font-size="14.00"> 503.41MB</text>
</a>
</g>
</g>
<!-- N4 -->
<g id="node4" class="node">
<title>N4</title>
<g id="a_node4"><a xlink:title="syscall.SlicePtrFromStrings (186.09MB)">
<polygon fill="#eddbd5" stroke="#b22f00" points="929.5,-164 702.5,-164 702.5,-87 929.5,-87 929.5,-164"/>
<text text-anchor="middle" x="816" y="-143.2" font-family="Times-Roman" font-size="21.00">syscall</text>
<text text-anchor="middle" x="816" y="-120.2" font-family="Times-Roman" font-size="21.00">SlicePtrFromStrings</text>
<text text-anchor="middle" x="816" y="-97.2" font-family="Times-Roman" font-size="21.00">186.09MB (35.44%)</text>
</a>
</g>
</g>
<!-- NN4_0 -->
<g id="NN4_0" class="node">
<title>NN4_0</title>
<g id="a_NN4_0"><a xlink:title="105.89MB">
<polygon fill="#f8f8f8" stroke="black" points="715,-36 633,-36 629,-32 629,0 711,0 715,-4 715,-36"/>
<polyline fill="none" stroke="black" points="711,-32 629,-32 "/>
<polyline fill="none" stroke="black" points="711,-32 711,0 "/>
<polyline fill="none" stroke="black" points="711,-32 715,-36 "/>
<text text-anchor="middle" x="672" y="-16.1" font-family="Times-Roman" font-size="8.00">2.62MB..11.66MB</text>
</a>
</g>
</g>
<!-- N4&#45;&gt;NN4_0 -->
<g id="edge6" class="edge">
<title>N4&#45;&gt;NN4_0</title>
<g id="a_edge6"><a xlink:title="105.89MB">
<path fill="none" stroke="black" d="M708.76,-86.94C701.15,-81.69 694.1,-75.73 688,-69 682.24,-62.63 678.55,-54.18 676.19,-46.04"/>
<polygon fill="black" stroke="black" points="679.54,-45.01 673.85,-36.07 672.73,-46.61 679.54,-45.01"/>
</a>
</g>
<g id="a_edge6&#45;label"><a xlink:title="105.89MB">
<text text-anchor="middle" x="726" y="-57.8" font-family="Times-Roman" font-size="14.00"> 105.89MB</text>
</a>
</g>
</g>
<!-- NN4_1 -->
<g id="NN4_1" class="node">
<title>NN4_1</title>
<g id="a_NN4_1"><a xlink:title="16.01MB">
<polygon fill="#f8f8f8" stroke="black" points="798,-36 748,-36 744,-32 744,0 794,0 798,-4 798,-36"/>
<polyline fill="none" stroke="black" points="794,-32 744,-32 "/>
<polyline fill="none" stroke="black" points="794,-32 794,0 "/>
<polyline fill="none" stroke="black" points="794,-32 798,-36 "/>
<text text-anchor="middle" x="771" y="-16.1" font-family="Times-Roman" font-size="8.00">16.01MB</text>
</a>
</g>
</g>
<!-- N4&#45;&gt;NN4_1 -->
<g id="edge7" class="edge">
<title>N4&#45;&gt;NN4_1</title>
<g id="a_edge7"><a xlink:title="16.01MB">
<path fill="none" stroke="black" d="M781.04,-86.72C777.38,-81.1 774.21,-75.13 772,-69 769.44,-61.89 768.51,-53.84 768.39,-46.31"/>
<polygon fill="black" stroke="black" points="771.89,-46.25 768.68,-36.16 764.9,-46.05 771.89,-46.25"/>
</a>
</g>
<g id="a_edge7&#45;label"><a xlink:title="16.01MB">
<text text-anchor="middle" x="805.5" y="-57.8" font-family="Times-Roman" font-size="14.00"> 16.01MB</text>
</a>
</g>
</g>
<!-- NN4_2 -->
<g id="NN4_2" class="node">
<title>NN4_2</title>
<g id="a_NN4_2"><a xlink:title="14.41MB">
<polygon fill="#f8f8f8" stroke="black" points="888,-36 838,-36 834,-32 834,0 884,0 888,-4 888,-36"/>
<polyline fill="none" stroke="black" points="884,-32 834,-32 "/>
<polyline fill="none" stroke="black" points="884,-32 884,0 "/>
<polyline fill="none" stroke="black" points="884,-32 888,-36 "/>
<text text-anchor="middle" x="861" y="-16.1" font-family="Times-Roman" font-size="8.00">14.41MB</text>
</a>
</g>
</g>
<!-- N4&#45;&gt;NN4_2 -->
<g id="edge8" class="edge">
<title>N4&#45;&gt;NN4_2</title>
<g id="a_edge8"><a xlink:title="14.41MB">
<path fill="none" stroke="black" d="M832.12,-86.71C837.93,-73.09 844.36,-58.01 849.67,-45.55"/>
<polygon fill="black" stroke="black" points="852.96,-46.77 853.66,-36.2 846.52,-44.02 852.96,-46.77"/>
</a>
</g>
<g id="a_edge8&#45;label"><a xlink:title="14.41MB">
<text text-anchor="middle" x="878.5" y="-57.8" font-family="Times-Roman" font-size="14.00"> 14.41MB</text>
</a>
</g>
</g>
<!-- NN4_3 -->
<g id="NN4_3" class="node">
<title>NN4_3</title>
<g id="a_NN4_3"><a xlink:title="12.96MB">
<polygon fill="#f8f8f8" stroke="black" points="978,-36 928,-36 924,-32 924,0 974,0 978,-4 978,-36"/>
<polyline fill="none" stroke="black" points="974,-32 924,-32 "/>
<polyline fill="none" stroke="black" points="974,-32 974,0 "/>
<polyline fill="none" stroke="black" points="974,-32 978,-36 "/>
<text text-anchor="middle" x="951" y="-16.1" font-family="Times-Roman" font-size="8.00">12.96MB</text>
</a>
</g>
</g>
<!-- N4&#45;&gt;NN4_3 -->
<g id="edge9" class="edge">
<title>N4&#45;&gt;NN4_3</title>
<g id="a_edge9"><a xlink:title="12.96MB">
<path fill="none" stroke="black" d="M892.49,-86.93C900.81,-81.44 908.85,-75.45 916,-69 923.71,-62.05 930.65,-53.1 936.27,-44.69"/>
<polygon fill="black" stroke="black" points="939.23,-46.56 941.63,-36.24 933.32,-42.81 939.23,-46.56"/>
</a>
</g>
<g id="a_edge9&#45;label"><a xlink:title="12.96MB">
<text text-anchor="middle" x="962.5" y="-57.8" font-family="Times-Roman" font-size="14.00"> 12.96MB</text>
</a>
</g>
</g>
<!-- N5 -->
<g id="node5" class="node">
<title>N5</title>
<g id="a_node5"><a xlink:title="runtime.main (21.73MB)">
<polygon fill="#edebe8" stroke="#b2a48d" points="712,-1364.5 608,-1364.5 608,-1328.5 712,-1328.5 712,-1364.5"/>
<text text-anchor="middle" x="660" y="-1353.6" font-family="Times-Roman" font-size="8.00">runtime</text>
<text text-anchor="middle" x="660" y="-1344.6" font-family="Times-Roman" font-size="8.00">main</text>
<text text-anchor="middle" x="660" y="-1335.6" font-family="Times-Roman" font-size="8.00">0 of 21.73MB (4.14%)</text>
</a>
</g>
</g>
<!-- N13 -->
<g id="node13" class="node">
<title>N13</title>
<g id="a_node13"><a xlink:title="runtime.doInit (21.73MB)">
<polygon fill="#edebe8" stroke="#b2a48d" points="712,-1228 608,-1228 608,-1192 712,-1192 712,-1228"/>
<text text-anchor="middle" x="660" y="-1217.1" font-family="Times-Roman" font-size="8.00">runtime</text>
<text text-anchor="middle" x="660" y="-1208.1" font-family="Times-Roman" font-size="8.00">doInit</text>
<text text-anchor="middle" x="660" y="-1199.1" font-family="Times-Roman" font-size="8.00">0 of 21.73MB (4.14%)</text>
</a>
</g>
</g>
<!-- N5&#45;&gt;N13 -->
<g id="edge21" class="edge">
<title>N5&#45;&gt;N13</title>
<g id="a_edge21"><a xlink:title="runtime.main &#45;&gt; runtime.doInit (21.73MB)">
<path fill="none" stroke="#b2a48d" d="M660,-1328.47C660,-1305.85 660,-1265.64 660,-1238.64"/>
<polygon fill="#b2a48d" stroke="#b2a48d" points="663.5,-1238.32 660,-1228.32 656.5,-1238.32 663.5,-1238.32"/>
</a>
</g>
<g id="a_edge21&#45;label"><a xlink:title="runtime.main &#45;&gt; runtime.doInit (21.73MB)">
<text text-anchor="middle" x="693.5" y="-1249.8" font-family="Times-Roman" font-size="14.00"> 21.73MB</text>
</a>
</g>
</g>
<!-- N6&#45;&gt;N1 -->
<g id="edge10" class="edge">
<title>N6&#45;&gt;N1</title>
<g id="a_edge10"><a xlink:title="github.com/ovn&#45;org/ovn&#45;kubernetes/go&#45;controller/pkg/util.TestFindMaxArgsUsable.func1 &#45;&gt; github.com/ovn&#45;org/ovn&#45;kubernetes/go&#45;controller/pkg/util.findMaxArgsUsable (503.41MB)">
<path fill="none" stroke="#b20200" stroke-width="5" d="M533,-1096.75C533,-1085.2 533,-1070.46 533,-1056.59"/>
<polygon fill="#b20200" stroke="#b20200" stroke-width="5" points="537.38,-1056.21 533,-1046.21 528.63,-1056.21 537.38,-1056.21"/>
</a>
</g>
<g id="a_edge10&#45;label"><a xlink:title="github.com/ovn&#45;org/ovn&#45;kubernetes/go&#45;controller/pkg/util.TestFindMaxArgsUsable.func1 &#45;&gt; github.com/ovn&#45;org/ovn&#45;kubernetes/go&#45;controller/pkg/util.findMaxArgsUsable (503.41MB)">
<text text-anchor="middle" x="571" y="-1067.8" font-family="Times-Roman" font-size="14.00"> 503.41MB</text>
</a>
</g>
</g>
<!-- N7 -->
<g id="node7" class="node">
<title>N7</title>
<g id="a_node7"><a xlink:title="github.com/ovn&#45;org/ovn&#45;kubernetes/go&#45;controller/pkg/util.init.0 (21.23MB)">
<polygon fill="#edebe8" stroke="#b2a48e" points="712,-1141 608,-1141 608,-1097 712,-1097 712,-1141"/>
<text text-anchor="middle" x="660" y="-1130.6" font-family="Times-Roman" font-size="8.00">util</text>
<text text-anchor="middle" x="660" y="-1121.6" font-family="Times-Roman" font-size="8.00">init</text>
<text text-anchor="middle" x="660" y="-1112.6" font-family="Times-Roman" font-size="8.00">0</text>
<text text-anchor="middle" x="660" y="-1103.6" font-family="Times-Roman" font-size="8.00">0 of 21.23MB (4.04%)</text>
</a>
</g>
</g>
<!-- N7&#45;&gt;N1 -->
<g id="edge22" class="edge">
<title>N7&#45;&gt;N1</title>
<g id="a_edge22"><a xlink:title="github.com/ovn&#45;org/ovn&#45;kubernetes/go&#45;controller/pkg/util.init.0 &#45;&gt; github.com/ovn&#45;org/ovn&#45;kubernetes/go&#45;controller/pkg/util.findMaxArgsUsable (21.23MB)">
<path fill="none" stroke="#b2a48e" d="M644.08,-1096.98C635.52,-1086.42 624.39,-1073.81 613,-1064 608.25,-1059.91 603.14,-1055.91 597.89,-1052.06"/>
<polygon fill="#b2a48e" stroke="#b2a48e" points="599.73,-1049.07 589.55,-1046.14 595.69,-1054.78 599.73,-1049.07"/>
</a>
</g>
<g id="a_edge22&#45;label"><a xlink:title="github.com/ovn&#45;org/ovn&#45;kubernetes/go&#45;controller/pkg/util.init.0 &#45;&gt; github.com/ovn&#45;org/ovn&#45;kubernetes/go&#45;controller/pkg/util.findMaxArgsUsable (21.23MB)">
<text text-anchor="middle" x="661.5" y="-1067.8" font-family="Times-Roman" font-size="14.00"> 21.23MB</text>
</a>
</g>
</g>
<!-- N8 -->
<g id="node8" class="node">
<title>N8</title>
<g id="a_node8"><a xlink:title="os.StartProcess (186.09MB)">
<polygon fill="#eddbd5" stroke="#b22f00" points="873,-527 759,-527 759,-491 873,-491 873,-527"/>
<text text-anchor="middle" x="816" y="-516.1" font-family="Times-Roman" font-size="8.00">os</text>
<text text-anchor="middle" x="816" y="-507.1" font-family="Times-Roman" font-size="8.00">StartProcess</text>
<text text-anchor="middle" x="816" y="-498.1" font-family="Times-Roman" font-size="8.00">0 of 186.09MB (35.44%)</text>
</a>
</g>
</g>
<!-- N9 -->
<g id="node9" class="node">
<title>N9</title>
<g id="a_node9"><a xlink:title="os.startProcess (186.09MB)">
<polygon fill="#eddbd5" stroke="#b22f00" points="873,-440 759,-440 759,-404 873,-404 873,-440"/>
<text text-anchor="middle" x="816" y="-429.1" font-family="Times-Roman" font-size="8.00">os</text>
<text text-anchor="middle" x="816" y="-420.1" font-family="Times-Roman" font-size="8.00">startProcess</text>
<text text-anchor="middle" x="816" y="-411.1" font-family="Times-Roman" font-size="8.00">0 of 186.09MB (35.44%)</text>
</a>
</g>
</g>
<!-- N8&#45;&gt;N9 -->
<g id="edge16" class="edge">
<title>N8&#45;&gt;N9</title>
<g id="a_edge16"><a xlink:title="os.StartProcess &#45;&gt; os.startProcess (186.09MB)">
<path fill="none" stroke="#b22f00" stroke-width="2" d="M816,-490.8C816,-479.16 816,-463.55 816,-450.24"/>
<polygon fill="#b22f00" stroke="#b22f00" stroke-width="2" points="819.5,-450.18 816,-440.18 812.5,-450.18 819.5,-450.18"/>
</a>
</g>
<g id="a_edge16&#45;label"><a xlink:title="os.StartProcess &#45;&gt; os.startProcess (186.09MB)">
<text text-anchor="middle" x="854" y="-461.8" font-family="Times-Roman" font-size="14.00"> 186.09MB</text>
</a>
</g>
</g>
<!-- N14 -->
<g id="node14" class="node">
<title>N14</title>
<g id="a_node14"><a xlink:title="syscall.StartProcess (186.09MB)">
<polygon fill="#eddbd5" stroke="#b22f00" points="873,-338 759,-338 759,-302 873,-302 873,-338"/>
<text text-anchor="middle" x="816" y="-327.1" font-family="Times-Roman" font-size="8.00">syscall</text>
<text text-anchor="middle" x="816" y="-318.1" font-family="Times-Roman" font-size="8.00">StartProcess</text>
<text text-anchor="middle" x="816" y="-309.1" font-family="Times-Roman" font-size="8.00">0 of 186.09MB (35.44%)</text>
</a>
</g>
</g>
<!-- N9&#45;&gt;N14 -->
<g id="edge17" class="edge">
<title>N9&#45;&gt;N14</title>
<g id="a_edge17"><a xlink:title="os.startProcess &#45;&gt; syscall.StartProcess (186.09MB)">
<path fill="none" stroke="#b22f00" stroke-width="2" d="M816,-403.58C816,-388.38 816,-366.07 816,-348.46"/>
<polygon fill="#b22f00" stroke="#b22f00" stroke-width="2" points="819.5,-348.22 816,-338.22 812.5,-348.22 819.5,-348.22"/>
</a>
</g>
<g id="a_edge17&#45;label"><a xlink:title="os.startProcess &#45;&gt; syscall.StartProcess (186.09MB)">
<text text-anchor="middle" x="854" y="-374.8" font-family="Times-Roman" font-size="14.00"> 186.09MB</text>
<text text-anchor="middle" x="854" y="-359.8" font-family="Times-Roman" font-size="14.00"> (inline)</text>
</a>
</g>
</g>
<!-- N11 -->
<g id="node11" class="node">
<title>N11</title>
<g id="a_node11"><a xlink:title="os/exec.(*Cmd).Run (187.10MB)">
<polygon fill="#eddbd5" stroke="#b22f00" points="873,-717 759,-717 759,-673 873,-673 873,-717"/>
<text text-anchor="middle" x="816" y="-706.6" font-family="Times-Roman" font-size="8.00">exec</text>
<text text-anchor="middle" x="816" y="-697.6" font-family="Times-Roman" font-size="8.00">(*Cmd)</text>
<text text-anchor="middle" x="816" y="-688.6" font-family="Times-Roman" font-size="8.00">Run</text>
<text text-anchor="middle" x="816" y="-679.6" font-family="Times-Roman" font-size="8.00">0 of 187.10MB (35.63%)</text>
</a>
</g>
</g>
<!-- N10&#45;&gt;N11 -->
<g id="edge14" class="edge">
<title>N10&#45;&gt;N11</title>
<g id="a_edge14"><a xlink:title="os/exec.(*Cmd).Output &#45;&gt; os/exec.(*Cmd).Run (187.10MB)">
<path fill="none" stroke="#b22f00" stroke-width="2" d="M816,-788.82C816,-771.55 816,-746.89 816,-727.33"/>
<polygon fill="#b22f00" stroke="#b22f00" stroke-width="2" points="819.5,-727.06 816,-717.06 812.5,-727.06 819.5,-727.06"/>
</a>
</g>
<g id="a_edge14&#45;label"><a xlink:title="os/exec.(*Cmd).Output &#45;&gt; os/exec.(*Cmd).Run (187.10MB)">
<text text-anchor="middle" x="854" y="-738.8" font-family="Times-Roman" font-size="14.00"> 187.10MB</text>
</a>
</g>
</g>
<!-- N12 -->
<g id="node12" class="node">
<title>N12</title>
<g id="a_node12"><a xlink:title="os/exec.(*Cmd).Start (187.10MB)">
<polygon fill="#eddbd5" stroke="#b22f00" points="873,-622 759,-622 759,-578 873,-578 873,-622"/>
<text text-anchor="middle" x="816" y="-611.6" font-family="Times-Roman" font-size="8.00">exec</text>
<text text-anchor="middle" x="816" y="-602.6" font-family="Times-Roman" font-size="8.00">(*Cmd)</text>
<text text-anchor="middle" x="816" y="-593.6" font-family="Times-Roman" font-size="8.00">Start</text>
<text text-anchor="middle" x="816" y="-584.6" font-family="Times-Roman" font-size="8.00">0 of 187.10MB (35.63%)</text>
</a>
</g>
</g>
<!-- N11&#45;&gt;N12 -->
<g id="edge15" class="edge">
<title>N11&#45;&gt;N12</title>
<g id="a_edge15"><a xlink:title="os/exec.(*Cmd).Run &#45;&gt; os/exec.(*Cmd).Start (187.10MB)">
<path fill="none" stroke="#b22f00" stroke-width="2" d="M816,-672.9C816,-660.89 816,-645.62 816,-632.24"/>
<polygon fill="#b22f00" stroke="#b22f00" stroke-width="2" points="819.5,-632.02 816,-622.02 812.5,-632.02 819.5,-632.02"/>
</a>
</g>
<g id="a_edge15&#45;label"><a xlink:title="os/exec.(*Cmd).Run &#45;&gt; os/exec.(*Cmd).Start (187.10MB)">
<text text-anchor="middle" x="854" y="-643.8" font-family="Times-Roman" font-size="14.00"> 187.10MB</text>
</a>
</g>
</g>
<!-- N12&#45;&gt;N8 -->
<g id="edge18" class="edge">
<title>N12&#45;&gt;N8</title>
<g id="a_edge18"><a xlink:title="os/exec.(*Cmd).Start &#45;&gt; os.StartProcess (186.09MB)">
<path fill="none" stroke="#b22f00" stroke-width="2" d="M816,-577.91C816,-565.78 816,-550.41 816,-537.36"/>
<polygon fill="#b22f00" stroke="#b22f00" stroke-width="2" points="819.5,-537.07 816,-527.07 812.5,-537.07 819.5,-537.07"/>
</a>
</g>
<g id="a_edge18&#45;label"><a xlink:title="os/exec.(*Cmd).Start &#45;&gt; os.StartProcess (186.09MB)">
<text text-anchor="middle" x="854" y="-548.8" font-family="Times-Roman" font-size="14.00"> 186.09MB</text>
</a>
</g>
</g>
<!-- N13&#45;&gt;N7 -->
<g id="edge23" class="edge">
<title>N13&#45;&gt;N7</title>
<g id="a_edge23"><a xlink:title="runtime.doInit &#45;&gt; github.com/ovn&#45;org/ovn&#45;kubernetes/go&#45;controller/pkg/util.init.0 (21.23MB)">
<path fill="none" stroke="#b2a48e" d="M660,-1191.84C660,-1180.44 660,-1165.13 660,-1151.58"/>
<polygon fill="#b2a48e" stroke="#b2a48e" points="663.5,-1151.19 660,-1141.19 656.5,-1151.19 663.5,-1151.19"/>
</a>
</g>
<g id="a_edge23&#45;label"><a xlink:title="runtime.doInit &#45;&gt; github.com/ovn&#45;org/ovn&#45;kubernetes/go&#45;controller/pkg/util.init.0 (21.23MB)">
<text text-anchor="middle" x="693.5" y="-1162.8" font-family="Times-Roman" font-size="14.00"> 21.23MB</text>
</a>
</g>
</g>
<!-- N15 -->
<g id="node15" class="node">
<title>N15</title>
<g id="a_node15"><a xlink:title="syscall.forkExec (186.09MB)">
<polygon fill="#eddbd5" stroke="#b22f00" points="873,-251 759,-251 759,-215 873,-215 873,-251"/>
<text text-anchor="middle" x="816" y="-240.1" font-family="Times-Roman" font-size="8.00">syscall</text>
<text text-anchor="middle" x="816" y="-231.1" font-family="Times-Roman" font-size="8.00">forkExec</text>
<text text-anchor="middle" x="816" y="-222.1" font-family="Times-Roman" font-size="8.00">0 of 186.09MB (35.44%)</text>
</a>
</g>
</g>
<!-- N14&#45;&gt;N15 -->
<g id="edge19" class="edge">
<title>N14&#45;&gt;N15</title>
<g id="a_edge19"><a xlink:title="syscall.StartProcess &#45;&gt; syscall.forkExec (186.09MB)">
<path fill="none" stroke="#b22f00" stroke-width="2" d="M816,-301.8C816,-290.16 816,-274.55 816,-261.24"/>
<polygon fill="#b22f00" stroke="#b22f00" stroke-width="2" points="819.5,-261.18 816,-251.18 812.5,-261.18 819.5,-261.18"/>
</a>
</g>
<g id="a_edge19&#45;label"><a xlink:title="syscall.StartProcess &#45;&gt; syscall.forkExec (186.09MB)">
<text text-anchor="middle" x="854" y="-272.8" font-family="Times-Roman" font-size="14.00"> 186.09MB</text>
</a>
</g>
</g>
<!-- N15&#45;&gt;N4 -->
<g id="edge20" class="edge">
<title>N15&#45;&gt;N4</title>
<g id="a_edge20"><a xlink:title="syscall.forkExec &#45;&gt; syscall.SlicePtrFromStrings (186.09MB)">
<path fill="none" stroke="#b22f00" stroke-width="2" d="M816,-214.58C816,-203.56 816,-188.73 816,-174.39"/>
<polygon fill="#b22f00" stroke="#b22f00" stroke-width="2" points="819.5,-174.09 816,-164.09 812.5,-174.09 819.5,-174.09"/>
</a>
</g>
<g id="a_edge20&#45;label"><a xlink:title="syscall.forkExec &#45;&gt; syscall.SlicePtrFromStrings (186.09MB)">
<text text-anchor="middle" x="854" y="-185.8" font-family="Times-Roman" font-size="14.00"> 186.09MB</text>
</a>
</g>
</g>
</g>
</g></svg>
