<?xml version="1.0" encoding="UTF-8" standalone="no"?>
<!DOCTYPE svg PUBLIC "-//W3C//DTD SVG 1.1//EN"
 "http://www.w3.org/Graphics/SVG/1.1/DTD/svg11.dtd">
<!-- Generated by graphviz version 2.44.0 (0)
 -->
<!-- Title: util.test Pages: 1 -->
<svg width="100%" height="100%" xmlns="http://www.w3.org/2000/svg" xmlns:xlink="http://www.w3.org/1999/xlink">
<script type="text/ecmascript"><![CDATA[
/**
 *  SVGPan library 1.2.2
 * ======================
 *
 * Given an unique existing element with id "viewport" (or when missing, the
 * first g-element), including the library into any SVG adds the following
 * capabilities:
 *
 *  - Mouse panning
 *  - Mouse zooming (using the wheel)
 *  - Object dragging
 *
 * You can configure the behaviour of the pan/zoom/drag with the variables
 * listed in the CONFIGURATION section of this file.
 *
 * Known issues:
 *
 *  - Zooming (while panning) on Safari has still some issues
 *
 * Releases:
 *
 * 1.2.2, Tue Aug 30 17:21:56 CEST 2011, Andrea Leofreddi
 *	- Fixed viewBox on root tag (#7)
 *	- Improved zoom speed (#2)
 *
 * 1.2.1, Mon Jul  4 00:33:18 CEST 2011, Andrea Leofreddi
 *	- Fixed a regression with mouse wheel (now working on Firefox 5)
 *	- Working with viewBox attribute (#4)
 *	- Added "use strict;" and fixed resulting warnings (#5)
 *	- Added configuration variables, dragging is disabled by default (#3)
 *
 * 1.2, Sat Mar 20 08:42:50 GMT 2010, Zeng Xiaohui
 *	Fixed a bug with browser mouse handler interaction
 *
 * 1.1, Wed Feb  3 17:39:33 GMT 2010, Zeng Xiaohui
 *	Updated the zoom code to support the mouse wheel on Safari/Chrome
 *
 * 1.0, Andrea Leofreddi
 *	First release
 *
 * This code is licensed under the following BSD license:
 *
 * Copyright 2009-2017 Andrea Leofreddi <a.leofreddi@vleo.net>. All rights reserved.
 *
 * Redistribution and use in source and binary forms, with or without modification, are
 * permitted provided that the following conditions are met:
 *
 *    1. Redistributions of source code must retain the above copyright
 *       notice, this list of conditions and the following disclaimer.
 *    2. Redistributions in binary form must reproduce the above copyright
 *       notice, this list of conditions and the following disclaimer in the
 *       documentation and/or other materials provided with the distribution.
 *    3. Neither the name of the copyright holder nor the names of its
 *       contributors may be used to endorse or promote products derived from
 *       this software without specific prior written permission.
 *
 * THIS SOFTWARE IS PROVIDED BY COPYRIGHT HOLDERS AND CONTRIBUTORS ''AS IS'' AND ANY EXPRESS
 * OR IMPLIED WARRANTIES, INCLUDING, BUT NOT LIMITED TO, THE IMPLIED WARRANTIES OF MERCHANTABILITY
 * AND FITNESS FOR A PARTICULAR PURPOSE ARE DISCLAIMED. IN NO EVENT SHALL COPYRIGHT HOLDERS OR
 * CONTRIBUTORS BE LIABLE FOR ANY DIRECT, INDIRECT, INCIDENTAL, SPECIAL, EXEMPLARY, OR
 * CONSEQUENTIAL DAMAGES (INCLUDING, BUT NOT LIMITED TO, PROCUREMENT OF SUBSTITUTE GOODS OR
 * SERVICES; LOSS OF USE, DATA, OR PROFITS; OR BUSINESS INTERRUPTION) HOWEVER CAUSED AND ON
 * ANY THEORY OF LIABILITY, WHETHER IN CONTRACT, STRICT LIABILITY, OR TORT (INCLUDING
 * NEGLIGENCE OR OTHERWISE) ARISING IN ANY WAY OUT OF THE USE OF THIS SOFTWARE, EVEN IF
 * ADVISED OF THE POSSIBILITY OF SUCH DAMAGE.
 *
 * The views and conclusions contained in the software and documentation are those of the
 * authors and should not be interpreted as representing official policies, either expressed
 * or implied, of Andrea Leofreddi.
 */

"use strict";

/// CONFIGURATION
/// ====>

var enablePan = 1; // 1 or 0: enable or disable panning (default enabled)
var enableZoom = 1; // 1 or 0: enable or disable zooming (default enabled)
var enableDrag = 0; // 1 or 0: enable or disable dragging (default disabled)
var zoomScale = 0.2; // Zoom sensitivity

/// <====
/// END OF CONFIGURATION

var root = document.documentElement;

var state = 'none', svgRoot = null, stateTarget, stateOrigin, stateTf;

setupHandlers(root);

/**
 * Register handlers
 */
function setupHandlers(root){
	setAttributes(root, {
		"onmouseup" : "handleMouseUp(evt)",
		"onmousedown" : "handleMouseDown(evt)",
		"onmousemove" : "handleMouseMove(evt)",
		//"onmouseout" : "handleMouseUp(evt)", // Decomment this to stop the pan functionality when dragging out of the SVG element
	});

	if(navigator.userAgent.toLowerCase().indexOf('webkit') >= 0)
		window.addEventListener('mousewheel', handleMouseWheel, false); // Chrome/Safari
	else
		window.addEventListener('DOMMouseScroll', handleMouseWheel, false); // Others
}

/**
 * Retrieves the root element for SVG manipulation. The element is then cached into the svgRoot global variable.
 */
function getRoot(root) {
	if(svgRoot == null) {
		var r = root.getElementById("viewport") ? root.getElementById("viewport") : root.documentElement, t = r;

		while(t != root) {
			if(t.getAttribute("viewBox")) {
				setCTM(r, t.getCTM());

				t.removeAttribute("viewBox");
			}

			t = t.parentNode;
		}

		svgRoot = r;
	}

	return svgRoot;
}

/**
 * Instance an SVGPoint object with given event coordinates.
 */
function getEventPoint(evt) {
	var p = root.createSVGPoint();

	p.x = evt.clientX;
	p.y = evt.clientY;

	return p;
}

/**
 * Sets the current transform matrix of an element.
 */
function setCTM(element, matrix) {
	var s = "matrix(" + matrix.a + "," + matrix.b + "," + matrix.c + "," + matrix.d + "," + matrix.e + "," + matrix.f + ")";

	element.setAttribute("transform", s);
}

/**
 * Dumps a matrix to a string (useful for debug).
 */
function dumpMatrix(matrix) {
	var s = "[ " + matrix.a + ", " + matrix.c + ", " + matrix.e + "\n  " + matrix.b + ", " + matrix.d + ", " + matrix.f + "\n  0, 0, 1 ]";

	return s;
}

/**
 * Sets attributes of an element.
 */
function setAttributes(element, attributes){
	for (var i in attributes)
		element.setAttributeNS(null, i, attributes[i]);
}

/**
 * Handle mouse wheel event.
 */
function handleMouseWheel(evt) {
	if(!enableZoom)
		return;

	if(evt.preventDefault)
		evt.preventDefault();

	evt.returnValue = false;

	var svgDoc = evt.target.ownerDocument;

	var delta;

	if(evt.wheelDelta)
		delta = evt.wheelDelta / 360; // Chrome/Safari
	else
		delta = evt.detail / -9; // Mozilla

	var z = Math.pow(1 + zoomScale, delta);

	var g = getRoot(svgDoc);
	
	var p = getEventPoint(evt);

	p = p.matrixTransform(g.getCTM().inverse());

	// Compute new scale matrix in current mouse position
	var k = root.createSVGMatrix().translate(p.x, p.y).scale(z).translate(-p.x, -p.y);

        setCTM(g, g.getCTM().multiply(k));

	if(typeof(stateTf) == "undefined")
		stateTf = g.getCTM().inverse();

	stateTf = stateTf.multiply(k.inverse());
}

/**
 * Handle mouse move event.
 */
function handleMouseMove(evt) {
	if(evt.preventDefault)
		evt.preventDefault();

	evt.returnValue = false;

	var svgDoc = evt.target.ownerDocument;

	var g = getRoot(svgDoc);

	if(state == 'pan' && enablePan) {
		// Pan mode
		var p = getEventPoint(evt).matrixTransform(stateTf);

		setCTM(g, stateTf.inverse().translate(p.x - stateOrigin.x, p.y - stateOrigin.y));
	} else if(state == 'drag' && enableDrag) {
		// Drag mode
		var p = getEventPoint(evt).matrixTransform(g.getCTM().inverse());

		setCTM(stateTarget, root.createSVGMatrix().translate(p.x - stateOrigin.x, p.y - stateOrigin.y).multiply(g.getCTM().inverse()).multiply(stateTarget.getCTM()));

		stateOrigin = p;
	}
}

/**
 * Handle click event.
 */
function handleMouseDown(evt) {
	if(evt.preventDefault)
		evt.preventDefault();

	evt.returnValue = false;

	var svgDoc = evt.target.ownerDocument;

	var g = getRoot(svgDoc);

	if(
		evt.target.tagName == "svg"
		|| !enableDrag // Pan anyway when drag is disabled and the user clicked on an element
	) {
		// Pan mode
		state = 'pan';

		stateTf = g.getCTM().inverse();

		stateOrigin = getEventPoint(evt).matrixTransform(stateTf);
	} else {
		// Drag mode
		state = 'drag';

		stateTarget = evt.target;

		stateTf = g.getCTM().inverse();

		stateOrigin = getEventPoint(evt).matrixTransform(stateTf);
	}
}

/**
 * Handle mouse button release event.
 */
function handleMouseUp(evt) {
	if(evt.preventDefault)
		evt.preventDefault();

	evt.returnValue = false;

	var svgDoc = evt.target.ownerDocument;

	if(state == 'pan' || state == 'drag') {
		// Quit pan mode
		state = '';
	}
}
]]></script><g id="viewport" transform="scale(0.5,0.5) translate(0,0)"><g id="graph0" class="graph" transform="scale(1 1) rotate(0) translate(4 1478)">
<title>util.test</title>
<polygon fill="white" stroke="transparent" points="-4,4 -4,-1478 1090,-1478 1090,4 -4,4"/>
<g id="clust1" class="cluster">
<title>cluster_L</title>
<polygon fill="none" stroke="black" points="8,-1315 8,-1466 598,-1466 598,-1315 8,-1315"/>
</g>
<!-- File: util.test -->
<g id="node1" class="node">
<title>File: util.test</title>
<g id="a_node1"><a xlink:title="util.test">
<polygon fill="#f8f8f8" stroke="black" points="589.5,-1458 16.5,-1458 16.5,-1323 589.5,-1323 589.5,-1458"/>
<text text-anchor="start" x="24.5" y="-1441.2" font-family="Times-Roman" font-size="16.00">File: util.test</text>
<text text-anchor="start" x="24.5" y="-1423.2" font-family="Times-Roman" font-size="16.00">Type: alloc_space</text>
<text text-anchor="start" x="24.5" y="-1405.2" font-family="Times-Roman" font-size="16.00">Time: Jun 9, 2021 at 2:38pm (EDT)</text>
<text text-anchor="start" x="24.5" y="-1387.2" font-family="Times-Roman" font-size="16.00">Showing nodes accounting for 799.80MB, 99.94% of 800.30MB total</text>
<text text-anchor="start" x="24.5" y="-1369.2" font-family="Times-Roman" font-size="16.00">Dropped 2 nodes (cum &lt;= 4MB)</text>
<text text-anchor="start" x="24.5" y="-1332.2" font-family="Times-Roman" font-size="16.00">See https://git.io/JfYMW for how to read the graph</text>
</a>
</g>
</g>
<!-- N1 -->
<g id="node1" class="node">
<title>N1</title>
<g id="a_node1"><a xlink:title="github.com/ovn&#45;org/ovn&#45;kubernetes/go&#45;controller/pkg/util.findMaxArgsUsable (800.30MB)">
<polygon fill="#edd5d5" stroke="#b20000" points="663,-1090 403,-1090 403,-978 663,-978 663,-1090"/>
<text text-anchor="middle" x="533" y="-1066.8" font-family="Times-Roman" font-size="24.00">util</text>
<text text-anchor="middle" x="533" y="-1040.8" font-family="Times-Roman" font-size="24.00">findMaxArgsUsable</text>
<text text-anchor="middle" x="533" y="-1014.8" font-family="Times-Roman" font-size="24.00">301.52MB (37.68%)</text>
<text text-anchor="middle" x="533" y="-988.8" font-family="Times-Roman" font-size="24.00">of 800.30MB (100%)</text>
</a>
</g>
</g>
<!-- NN1_0 -->
<g id="NN1_0" class="node">
<title>NN1_0</title>
<g id="a_NN1_0"><a xlink:title="214.79MB">
<polygon fill="#f8f8f8" stroke="black" points="399,-927 317,-927 313,-923 313,-891 395,-891 399,-895 399,-927"/>
<polyline fill="none" stroke="black" points="395,-923 313,-923 "/>
<polyline fill="none" stroke="black" points="395,-923 395,-891 "/>
<polyline fill="none" stroke="black" points="395,-923 399,-927 "/>
<text text-anchor="middle" x="356" y="-907.1" font-family="Times-Roman" font-size="8.00">2.92MB..23.33MB</text>
</a>
</g>
</g>
<!-- N1&#45;&gt;NN1_0 -->
<g id="edge1" class="edge">
<title>N1&#45;&gt;NN1_0</title>
<g id="a_edge1"><a xlink:title="214.79MB">
<path fill="none" stroke="black" d="M420.25,-977.89C411.76,-972.26 403.57,-966.28 396,-960 387.53,-952.97 379.63,-943.9 373.13,-935.42"/>
<polygon fill="black" stroke="black" points="375.85,-933.22 367.12,-927.23 370.21,-937.36 375.85,-933.22"/>
</a>
</g>
<g id="a_edge1&#45;label"><a xlink:title="214.79MB">
<text text-anchor="middle" x="434" y="-948.8" font-family="Times-Roman" font-size="14.00"> 214.79MB</text>
</a>
</g>
</g>
<!-- NN1_1 -->
<g id="NN1_1" class="node">
<title>NN1_1</title>
<g id="a_NN1_1"><a xlink:title="32MB">
<polygon fill="#f8f8f8" stroke="black" points="496.5,-927 421.5,-927 417.5,-923 417.5,-891 492.5,-891 496.5,-895 496.5,-927"/>
<polyline fill="none" stroke="black" points="492.5,-923 417.5,-923 "/>
<polyline fill="none" stroke="black" points="492.5,-923 492.5,-891 "/>
<polyline fill="none" stroke="black" points="492.5,-923 496.5,-927 "/>
<text text-anchor="middle" x="457" y="-907.1" font-family="Times-Roman" font-size="8.00">32MB..32.01MB</text>
</a>
</g>
</g>
<!-- N1&#45;&gt;NN1_1 -->
<g id="edge2" class="edge">
<title>N1&#45;&gt;NN1_1</title>
<g id="a_edge2"><a xlink:title="32MB">
<path fill="none" stroke="black" d="M495.24,-977.96C491.37,-971.95 487.55,-965.88 484,-960 479.43,-952.43 474.76,-944.04 470.61,-936.33"/>
<polygon fill="black" stroke="black" points="473.62,-934.55 465.85,-927.35 467.44,-937.83 473.62,-934.55"/>
</a>
</g>
<g id="a_edge2&#45;label"><a xlink:title="32MB">
<text text-anchor="middle" x="506.5" y="-948.8" font-family="Times-Roman" font-size="14.00"> 32MB</text>
</a>
</g>
</g>
<!-- NN1_2 -->
<g id="NN1_2" class="node">
<title>NN1_2</title>
<g id="a_NN1_2"><a xlink:title="28.80MB">
<polygon fill="#f8f8f8" stroke="black" points="569,-927 519,-927 515,-923 515,-891 565,-891 569,-895 569,-927"/>
<polyline fill="none" stroke="black" points="565,-923 515,-923 "/>
<polyline fill="none" stroke="black" points="565,-923 565,-891 "/>
<polyline fill="none" stroke="black" points="565,-923 569,-927 "/>
<text text-anchor="middle" x="542" y="-907.1" font-family="Times-Roman" font-size="8.00">28.80MB</text>
</a>
</g>
</g>
<!-- N1&#45;&gt;NN1_2 -->
<g id="edge3" class="edge">
<title>N1&#45;&gt;NN1_2</title>
<g id="a_edge3"><a xlink:title="28.80MB">
<path fill="none" stroke="black" d="M531.82,-977.96C532.1,-967.01 532.74,-955.62 534,-945 534.3,-942.45 534.71,-939.82 535.19,-937.2"/>
<polygon fill="black" stroke="black" points="538.64,-937.83 537.27,-927.32 531.79,-936.38 538.64,-937.83"/>
</a>
</g>
<g id="a_edge3&#45;label"><a xlink:title="28.80MB">
<text text-anchor="middle" x="567.5" y="-948.8" font-family="Times-Roman" font-size="14.00"> 28.80MB</text>
</a>
</g>
</g>
<!-- NN1_3 -->
<g id="NN1_3" class="node">
<title>NN1_3</title>
<g id="a_NN1_3"><a xlink:title="25.92MB">
<polygon fill="#f8f8f8" stroke="black" points="650,-927 600,-927 596,-923 596,-891 646,-891 650,-895 650,-927"/>
<polyline fill="none" stroke="black" points="646,-923 596,-923 "/>
<polyline fill="none" stroke="black" points="646,-923 646,-891 "/>
<polyline fill="none" stroke="black" points="646,-923 650,-927 "/>
<text text-anchor="middle" x="623" y="-907.1" font-family="Times-Roman" font-size="8.00">25.92MB</text>
</a>
</g>
</g>
<!-- N1&#45;&gt;NN1_3 -->
<g id="edge4" class="edge">
<title>N1&#45;&gt;NN1_3</title>
<g id="a_edge4"><a xlink:title="25.92MB">
<path fill="none" stroke="black" d="M587.72,-977.99C592.48,-972.12 597,-966.08 601,-960 605.69,-952.87 609.81,-944.57 613.17,-936.81"/>
<polygon fill="black" stroke="black" points="616.47,-937.98 617.01,-927.4 609.99,-935.33 616.47,-937.98"/>
</a>
</g>
<g id="a_edge4&#45;label"><a xlink:title="25.92MB">
<text text-anchor="middle" x="643.5" y="-948.8" font-family="Times-Roman" font-size="14.00"> 25.92MB</text>
</a>
</g>
</g>
<!-- N3 -->
<g id="node3" class="node">
<title>N3</title>
<g id="a_node3"><a xlink:title="os/exec.Command (305.54MB)">
<polygon fill="#eddbd5" stroke="#b22c00" points="831,-854 579,-854 579,-768 831,-768 831,-854"/>
<text text-anchor="middle" x="705" y="-830.8" font-family="Times-Roman" font-size="24.00">exec</text>
<text text-anchor="middle" x="705" y="-804.8" font-family="Times-Roman" font-size="24.00">Command</text>
<text text-anchor="middle" x="705" y="-778.8" font-family="Times-Roman" font-size="24.00">305.54MB (38.18%)</text>
</a>
</g>
</g>
<!-- N1&#45;&gt;N3 -->
<g id="edge15" class="edge">
<title>N1&#45;&gt;N3</title>
<g id="a_edge15"><a xlink:title="github.com/ovn&#45;org/ovn&#45;kubernetes/go&#45;controller/pkg/util.findMaxArgsUsable &#45;&gt; os/exec.Command (305.54MB)">
<path fill="none" stroke="#b22c00" stroke-width="2" d="M663.11,-979.22C669.75,-973.41 675.8,-967.03 681,-960 701.16,-932.73 707.02,-894.89 707.91,-864.3"/>
<polygon fill="#b22c00" stroke="#b22c00" stroke-width="2" points="711.41,-864.27 708.03,-854.23 704.41,-864.18 711.41,-864.27"/>
</a>
</g>
<g id="a_edge15&#45;label"><a xlink:title="github.com/ovn&#45;org/ovn&#45;kubernetes/go&#45;controller/pkg/util.findMaxArgsUsable &#45;&gt; os/exec.Command (305.54MB)">
<text text-anchor="middle" x="743" y="-905.3" font-family="Times-Roman" font-size="14.00"> 305.54MB</text>
</a>
</g>
</g>
<!-- N10 -->
<g id="node10" class="node">
<title>N10</title>
<g id="a_node10"><a xlink:title="os/exec.(*Cmd).Output (193.24MB)">
<polygon fill="#edddd5" stroke="#b23d00" points="963,-833 849,-833 849,-789 963,-789 963,-833"/>
<text text-anchor="middle" x="906" y="-822.6" font-family="Times-Roman" font-size="8.00">exec</text>
<text text-anchor="middle" x="906" y="-813.6" font-family="Times-Roman" font-size="8.00">(*Cmd)</text>
<text text-anchor="middle" x="906" y="-804.6" font-family="Times-Roman" font-size="8.00">Output</text>
<text text-anchor="middle" x="906" y="-795.6" font-family="Times-Roman" font-size="8.00">0 of 193.24MB (24.15%)</text>
</a>
</g>
</g>
<!-- N1&#45;&gt;N10 -->
<g id="edge16" class="edge">
<title>N1&#45;&gt;N10</title>
<g id="a_edge16"><a xlink:title="github.com/ovn&#45;org/ovn&#45;kubernetes/go&#45;controller/pkg/util.findMaxArgsUsable &#45;&gt; os/exec.(*Cmd).Output (193.24MB)">
<path fill="none" stroke="#b23d00" stroke-width="2" d="M663.16,-988.71C703.76,-972.19 747.66,-951.42 785,-927 822.37,-902.57 858.58,-865.89 881.5,-840.56"/>
<polygon fill="#b23d00" stroke="#b23d00" stroke-width="2" points="884.12,-842.88 888.17,-833.09 878.9,-838.22 884.12,-842.88"/>
</a>
</g>
<g id="a_edge16&#45;label"><a xlink:title="github.com/ovn&#45;org/ovn&#45;kubernetes/go&#45;controller/pkg/util.findMaxArgsUsable &#45;&gt; os/exec.(*Cmd).Output (193.24MB)">
<text text-anchor="middle" x="869" y="-905.3" font-family="Times-Roman" font-size="14.00"> 193.24MB</text>
</a>
</g>
</g>
<!-- N2 -->
<g id="node2" class="node">
<title>N2</title>
<g id="a_node2"><a xlink:title="testing.tRunner (766.47MB)">
<polygon fill="#edd5d5" stroke="#b20200" points="590,-1272 476,-1272 476,-1236 590,-1236 590,-1272"/>
<text text-anchor="middle" x="533" y="-1261.1" font-family="Times-Roman" font-size="8.00">testing</text>
<text text-anchor="middle" x="533" y="-1252.1" font-family="Times-Roman" font-size="8.00">tRunner</text>
<text text-anchor="middle" x="533" y="-1243.1" font-family="Times-Roman" font-size="8.00">0 of 766.47MB (95.77%)</text>
</a>
</g>
</g>
<!-- N6 -->
<g id="node6" class="node">
<title>N6</title>
<g id="a_node6"><a xlink:title="github.com/ovn&#45;org/ovn&#45;kubernetes/go&#45;controller/pkg/util.TestFindMaxArgsUsable.func1 (768.12MB)">
<polygon fill="#edd5d5" stroke="#b20200" points="590,-1185 476,-1185 476,-1141 590,-1141 590,-1185"/>
<text text-anchor="middle" x="533" y="-1174.6" font-family="Times-Roman" font-size="8.00">util</text>
<text text-anchor="middle" x="533" y="-1165.6" font-family="Times-Roman" font-size="8.00">TestFindMaxArgsUsable</text>
<text text-anchor="middle" x="533" y="-1156.6" font-family="Times-Roman" font-size="8.00">func1</text>
<text text-anchor="middle" x="533" y="-1147.6" font-family="Times-Roman" font-size="8.00">0 of 768.12MB (95.98%)</text>
</a>
</g>
</g>
<!-- N2&#45;&gt;N6 -->
<g id="edge14" class="edge">
<title>N2&#45;&gt;N6</title>
<g id="a_edge14"><a xlink:title="testing.tRunner &#45;&gt; github.com/ovn&#45;org/ovn&#45;kubernetes/go&#45;controller/pkg/util.TestFindMaxArgsUsable.func1 (766.47MB)">
<path fill="none" stroke="#b20200" stroke-width="5" d="M533,-1235.84C533,-1224.44 533,-1209.13 533,-1195.58"/>
<polygon fill="#b20200" stroke="#b20200" stroke-width="5" points="537.38,-1195.19 533,-1185.19 528.63,-1195.19 537.38,-1195.19"/>
</a>
</g>
<g id="a_edge14&#45;label"><a xlink:title="testing.tRunner &#45;&gt; github.com/ovn&#45;org/ovn&#45;kubernetes/go&#45;controller/pkg/util.TestFindMaxArgsUsable.func1 (766.47MB)">
<text text-anchor="middle" x="571" y="-1206.8" font-family="Times-Roman" font-size="14.00"> 766.47MB</text>
</a>
</g>
</g>
<!-- NN3_0 -->
<g id="NN3_0" class="node">
<title>NN3_0</title>
<g id="a_NN3_0"><a xlink:title="198.46MB">
<polygon fill="#f8f8f8" stroke="black" points="564,-713 482,-713 478,-709 478,-677 560,-677 564,-681 564,-713"/>
<polyline fill="none" stroke="black" points="560,-709 478,-709 "/>
<polyline fill="none" stroke="black" points="560,-709 560,-677 "/>
<polyline fill="none" stroke="black" points="560,-709 564,-713 "/>
<text text-anchor="middle" x="521" y="-693.1" font-family="Times-Roman" font-size="8.00">4.01MB..23.33MB</text>
</a>
</g>
</g>
<!-- N3&#45;&gt;NN3_0 -->
<g id="edge5" class="edge">
<title>N3&#45;&gt;NN3_0</title>
<g id="a_edge5"><a xlink:title="198.46MB">
<path fill="none" stroke="black" d="M578.64,-770.26C568.38,-764.36 558.65,-757.64 550,-750 541.63,-742.6 535.24,-732.19 530.63,-722.48"/>
<polygon fill="black" stroke="black" points="533.77,-720.93 526.59,-713.14 527.34,-723.71 533.77,-720.93"/>
</a>
</g>
<g id="a_edge5&#45;label"><a xlink:title="198.46MB">
<text text-anchor="middle" x="588" y="-738.8" font-family="Times-Roman" font-size="14.00"> 198.46MB</text>
</a>
</g>
</g>
<!-- NN3_1 -->
<g id="NN3_1" class="node">
<title>NN3_1</title>
<g id="a_NN3_1"><a xlink:title="32.01MB">
<polygon fill="#f8f8f8" stroke="black" points="647,-713 597,-713 593,-709 593,-677 643,-677 647,-681 647,-713"/>
<polyline fill="none" stroke="black" points="643,-709 593,-709 "/>
<polyline fill="none" stroke="black" points="643,-709 643,-677 "/>
<polyline fill="none" stroke="black" points="643,-709 647,-713 "/>
<text text-anchor="middle" x="620" y="-693.1" font-family="Times-Roman" font-size="8.00">32.01MB</text>
</a>
</g>
</g>
<!-- N3&#45;&gt;NN3_1 -->
<g id="edge6" class="edge">
<title>N3&#45;&gt;NN3_1</title>
<g id="a_edge6"><a xlink:title="32.01MB">
<path fill="none" stroke="black" d="M650.19,-767.87C644.92,-762.27 640.04,-756.28 636,-750 630.77,-741.87 627.2,-731.98 624.78,-722.88"/>
<polygon fill="black" stroke="black" points="628.18,-722.05 622.51,-713.1 621.36,-723.63 628.18,-722.05"/>
</a>
</g>
<g id="a_edge6&#45;label"><a xlink:title="32.01MB">
<text text-anchor="middle" x="669.5" y="-738.8" font-family="Times-Roman" font-size="14.00"> 32.01MB</text>
</a>
</g>
</g>
<!-- NN3_2 -->
<g id="NN3_2" class="node">
<title>NN3_2</title>
<g id="a_NN3_2"><a xlink:title="28.80MB">
<polygon fill="#f8f8f8" stroke="black" points="737,-713 687,-713 683,-709 683,-677 733,-677 737,-681 737,-713"/>
<polyline fill="none" stroke="black" points="733,-709 683,-709 "/>
<polyline fill="none" stroke="black" points="733,-709 733,-677 "/>
<polyline fill="none" stroke="black" points="733,-709 737,-713 "/>
<text text-anchor="middle" x="710" y="-693.1" font-family="Times-Roman" font-size="8.00">28.80MB</text>
</a>
</g>
</g>
<!-- N3&#45;&gt;NN3_2 -->
<g id="edge7" class="edge">
<title>N3&#45;&gt;NN3_2</title>
<g id="a_edge7"><a xlink:title="28.80MB">
<path fill="none" stroke="black" d="M706.85,-767.87C707.5,-753.11 708.21,-736.91 708.79,-723.63"/>
<polygon fill="black" stroke="black" points="712.3,-723.41 709.24,-713.27 705.31,-723.1 712.3,-723.41"/>
</a>
</g>
<g id="a_edge7&#45;label"><a xlink:title="28.80MB">
<text text-anchor="middle" x="741.5" y="-738.8" font-family="Times-Roman" font-size="14.00"> 28.80MB</text>
</a>
</g>
</g>
<!-- NN3_3 -->
<g id="NN3_3" class="node">
<title>NN3_3</title>
<g id="a_NN3_3"><a xlink:title="25.92MB">
<polygon fill="#f8f8f8" stroke="black" points="827,-713 777,-713 773,-709 773,-677 823,-677 827,-681 827,-713"/>
<polyline fill="none" stroke="black" points="823,-709 773,-709 "/>
<polyline fill="none" stroke="black" points="823,-709 823,-677 "/>
<polyline fill="none" stroke="black" points="823,-709 827,-713 "/>
<text text-anchor="middle" x="800" y="-693.1" font-family="Times-Roman" font-size="8.00">25.92MB</text>
</a>
</g>
</g>
<!-- N3&#45;&gt;NN3_3 -->
<g id="edge8" class="edge">
<title>N3&#45;&gt;NN3_3</title>
<g id="a_edge8"><a xlink:title="25.92MB">
<path fill="none" stroke="black" d="M762.38,-767.74C768.07,-762.16 773.43,-756.21 778,-750 784,-741.86 788.66,-731.85 792.12,-722.67"/>
<polygon fill="black" stroke="black" points="795.45,-723.76 795.41,-713.17 788.84,-721.47 795.45,-723.76"/>
</a>
</g>
<g id="a_edge8&#45;label"><a xlink:title="25.92MB">
<text text-anchor="middle" x="819.5" y="-738.8" font-family="Times-Roman" font-size="14.00"> 25.92MB</text>
</a>
</g>
</g>
<!-- N4 -->
<g id="node4" class="node">
<title>N4</title>
<g id="a_node4"><a xlink:title="syscall.SlicePtrFromStrings (192.74MB)">
<polygon fill="#edddd5" stroke="#b23e00" points="1019.5,-164 792.5,-164 792.5,-87 1019.5,-87 1019.5,-164"/>
<text text-anchor="middle" x="906" y="-143.2" font-family="Times-Roman" font-size="21.00">syscall</text>
<text text-anchor="middle" x="906" y="-120.2" font-family="Times-Roman" font-size="21.00">SlicePtrFromStrings</text>
<text text-anchor="middle" x="906" y="-97.2" font-family="Times-Roman" font-size="21.00">192.74MB (24.08%)</text>
</a>
</g>
</g>
<!-- NN4_0 -->
<g id="NN4_0" class="node">
<title>NN4_0</title>
<g id="a_NN4_0"><a xlink:title="84.09MB">
<polygon fill="#f8f8f8" stroke="black" points="814,-36 732,-36 728,-32 728,0 810,0 814,-4 814,-36"/>
<polyline fill="none" stroke="black" points="810,-32 728,-32 "/>
<polyline fill="none" stroke="black" points="810,-32 810,0 "/>
<polyline fill="none" stroke="black" points="810,-32 814,-36 "/>
<text text-anchor="middle" x="771" y="-16.1" font-family="Times-Roman" font-size="8.00">4.01MB..11.66MB</text>
</a>
</g>
</g>
<!-- N4&#45;&gt;NN4_0 -->
<g id="edge9" class="edge">
<title>N4&#45;&gt;NN4_0</title>
<g id="a_edge9"><a xlink:title="84.09MB">
<path fill="none" stroke="black" d="M807.11,-86.85C799.72,-81.6 792.88,-75.67 787,-69 781.41,-62.65 777.77,-54.33 775.4,-46.31"/>
<polygon fill="black" stroke="black" points="778.78,-45.37 773.03,-36.47 771.97,-47.02 778.78,-45.37"/>
</a>
</g>
<g id="a_edge9&#45;label"><a xlink:title="84.09MB">
<text text-anchor="middle" x="820.5" y="-57.8" font-family="Times-Roman" font-size="14.00"> 84.09MB</text>
</a>
</g>
</g>
<!-- NN4_1 -->
<g id="NN4_1" class="node">
<title>NN4_1</title>
<g id="a_NN4_1"><a xlink:title="16.01MB">
<polygon fill="#f8f8f8" stroke="black" points="888,-36 838,-36 834,-32 834,0 884,0 888,-4 888,-36"/>
<polyline fill="none" stroke="black" points="884,-32 834,-32 "/>
<polyline fill="none" stroke="black" points="884,-32 884,0 "/>
<polyline fill="none" stroke="black" points="884,-32 888,-36 "/>
<text text-anchor="middle" x="861" y="-16.1" font-family="Times-Roman" font-size="8.00">16.01MB</text>
</a>
</g>
</g>
<!-- N4&#45;&gt;NN4_1 -->
<g id="edge10" class="edge">
<title>N4&#45;&gt;NN4_1</title>
<g id="a_edge10"><a xlink:title="16.01MB">
<path fill="none" stroke="black" d="M871.04,-86.72C867.38,-81.1 864.21,-75.13 862,-69 859.44,-61.89 858.51,-53.84 858.39,-46.31"/>
<polygon fill="black" stroke="black" points="861.89,-46.25 858.68,-36.16 854.9,-46.05 861.89,-46.25"/>
</a>
</g>
<g id="a_edge10&#45;label"><a xlink:title="16.01MB">
<text text-anchor="middle" x="895.5" y="-57.8" font-family="Times-Roman" font-size="14.00"> 16.01MB</text>
</a>
</g>
</g>
<!-- NN4_2 -->
<g id="NN4_2" class="node">
<title>NN4_2</title>
<g id="a_NN4_2"><a xlink:title="14.41MB">
<polygon fill="#f8f8f8" stroke="black" points="978,-36 928,-36 924,-32 924,0 974,0 978,-4 978,-36"/>
<polyline fill="none" stroke="black" points="974,-32 924,-32 "/>
<polyline fill="none" stroke="black" points="974,-32 974,0 "/>
<polyline fill="none" stroke="black" points="974,-32 978,-36 "/>
<text text-anchor="middle" x="951" y="-16.1" font-family="Times-Roman" font-size="8.00">14.41MB</text>
</a>
</g>
</g>
<!-- N4&#45;&gt;NN4_2 -->
<g id="edge11" class="edge">
<title>N4&#45;&gt;NN4_2</title>
<g id="a_edge11"><a xlink:title="14.41MB">
<path fill="none" stroke="black" d="M922.12,-86.71C927.93,-73.09 934.36,-58.01 939.67,-45.55"/>
<polygon fill="black" stroke="black" points="942.96,-46.77 943.66,-36.2 936.52,-44.02 942.96,-46.77"/>
</a>
</g>
<g id="a_edge11&#45;label"><a xlink:title="14.41MB">
<text text-anchor="middle" x="968.5" y="-57.8" font-family="Times-Roman" font-size="14.00"> 14.41MB</text>
</a>
</g>
</g>
<!-- NN4_3 -->
<g id="NN4_3" class="node">
<title>NN4_3</title>
<g id="a_NN4_3"><a xlink:title="12.96MB">
<polygon fill="#f8f8f8" stroke="black" points="1068,-36 1018,-36 1014,-32 1014,0 1064,0 1068,-4 1068,-36"/>
<polyline fill="none" stroke="black" points="1064,-32 1014,-32 "/>
<polyline fill="none" stroke="black" points="1064,-32 1064,0 "/>
<polyline fill="none" stroke="black" points="1064,-32 1068,-36 "/>
<text text-anchor="middle" x="1041" y="-16.1" font-family="Times-Roman" font-size="8.00">12.96MB</text>
</a>
</g>
</g>
<!-- N4&#45;&gt;NN4_3 -->
<g id="edge12" class="edge">
<title>N4&#45;&gt;NN4_3</title>
<g id="a_edge12"><a xlink:title="12.96MB">
<path fill="none" stroke="black" d="M982.49,-86.93C990.81,-81.44 998.85,-75.45 1006,-69 1013.71,-62.05 1020.65,-53.1 1026.27,-44.69"/>
<polygon fill="black" stroke="black" points="1029.23,-46.56 1031.63,-36.24 1023.32,-42.81 1029.23,-46.56"/>
</a>
</g>
<g id="a_edge12&#45;label"><a xlink:title="12.96MB">
<text text-anchor="middle" x="1052.5" y="-57.8" font-family="Times-Roman" font-size="14.00"> 12.96MB</text>
</a>
</g>
</g>
<!-- N5 -->
<g id="node5" class="node">
<title>N5</title>
<g id="a_node5"><a xlink:title="runtime.main (32.17MB)">
<polygon fill="#edebe8" stroke="#b2a48e" points="712,-1408.5 608,-1408.5 608,-1372.5 712,-1372.5 712,-1408.5"/>
<text text-anchor="middle" x="660" y="-1397.6" font-family="Times-Roman" font-size="8.00">runtime</text>
<text text-anchor="middle" x="660" y="-1388.6" font-family="Times-Roman" font-size="8.00">main</text>
<text text-anchor="middle" x="660" y="-1379.6" font-family="Times-Roman" font-size="8.00">0 of 32.17MB (4.02%)</text>
</a>
</g>
</g>
<!-- N13 -->
<g id="node13" class="node">
<title>N13</title>
<g id="a_node13"><a xlink:title="runtime.doInit (32.17MB)">
<polygon fill="#edebe8" stroke="#b2a48e" points="712,-1272 608,-1272 608,-1236 712,-1236 712,-1272"/>
<text text-anchor="middle" x="660" y="-1261.1" font-family="Times-Roman" font-size="8.00">runtime</text>
<text text-anchor="middle" x="660" y="-1252.1" font-family="Times-Roman" font-size="8.00">doInit</text>
<text text-anchor="middle" x="660" y="-1243.1" font-family="Times-Roman" font-size="8.00">0 of 32.17MB (4.02%)</text>
</a>
</g>
</g>
<!-- N5&#45;&gt;N13 -->
<g id="edge26" class="edge">
<title>N5&#45;&gt;N13</title>
<g id="a_edge26"><a xlink:title="runtime.main &#45;&gt; runtime.doInit (32.17MB)">
<path fill="none" stroke="#b2a48e" d="M660,-1372.47C660,-1349.85 660,-1309.64 660,-1282.64"/>
<polygon fill="#b2a48e" stroke="#b2a48e" points="663.5,-1282.32 660,-1272.32 656.5,-1282.32 663.5,-1282.32"/>
</a>
</g>
<g id="a_edge26&#45;label"><a xlink:title="runtime.main &#45;&gt; runtime.doInit (32.17MB)">
<text text-anchor="middle" x="693.5" y="-1293.8" font-family="Times-Roman" font-size="14.00"> 32.17MB</text>
</a>
</g>
</g>
<!-- N6&#45;&gt;N1 -->
<g id="edge13" class="edge">
<title>N6&#45;&gt;N1</title>
<g id="a_edge13"><a xlink:title="github.com/ovn&#45;org/ovn&#45;kubernetes/go&#45;controller/pkg/util.TestFindMaxArgsUsable.func1 &#45;&gt; github.com/ovn&#45;org/ovn&#45;kubernetes/go&#45;controller/pkg/util.findMaxArgsUsable (768.12MB)">
<path fill="none" stroke="#b20200" stroke-width="5" d="M533,-1140.74C533,-1129.44 533,-1114.87 533,-1100.18"/>
<polygon fill="#b20200" stroke="#b20200" stroke-width="5" points="537.38,-1100.03 533,-1090.03 528.63,-1100.03 537.38,-1100.03"/>
</a>
</g>
<g id="a_edge13&#45;label"><a xlink:title="github.com/ovn&#45;org/ovn&#45;kubernetes/go&#45;controller/pkg/util.TestFindMaxArgsUsable.func1 &#45;&gt; github.com/ovn&#45;org/ovn&#45;kubernetes/go&#45;controller/pkg/util.findMaxArgsUsable (768.12MB)">
<text text-anchor="middle" x="571" y="-1111.8" font-family="Times-Roman" font-size="14.00"> 768.12MB</text>
</a>
</g>
</g>
<!-- N7 -->
<g id="node7" class="node">
<title>N7</title>
<g id="a_node7"><a xlink:title="github.com/ovn&#45;org/ovn&#45;kubernetes/go&#45;controller/pkg/util.init.0 (32.17MB)">
<polygon fill="#edebe8" stroke="#b2a48e" points="712,-1185 608,-1185 608,-1141 712,-1141 712,-1185"/>
<text text-anchor="middle" x="660" y="-1174.6" font-family="Times-Roman" font-size="8.00">util</text>
<text text-anchor="middle" x="660" y="-1165.6" font-family="Times-Roman" font-size="8.00">init</text>
<text text-anchor="middle" x="660" y="-1156.6" font-family="Times-Roman" font-size="8.00">0</text>
<text text-anchor="middle" x="660" y="-1147.6" font-family="Times-Roman" font-size="8.00">0 of 32.17MB (4.02%)</text>
</a>
</g>
</g>
<!-- N7&#45;&gt;N1 -->
<g id="edge24" class="edge">
<title>N7&#45;&gt;N1</title>
<g id="a_edge24"><a xlink:title="github.com/ovn&#45;org/ovn&#45;kubernetes/go&#45;controller/pkg/util.init.0 &#45;&gt; github.com/ovn&#45;org/ovn&#45;kubernetes/go&#45;controller/pkg/util.findMaxArgsUsable (32.17MB)">
<path fill="none" stroke="#b2a48e" d="M642.69,-1140.99C634.03,-1130.78 623.25,-1118.49 613,-1108 609.48,-1104.39 605.81,-1100.74 602.08,-1097.09"/>
<polygon fill="#b2a48e" stroke="#b2a48e" points="604.46,-1094.52 594.83,-1090.1 599.59,-1099.56 604.46,-1094.52"/>
</a>
</g>
<g id="a_edge24&#45;label"><a xlink:title="github.com/ovn&#45;org/ovn&#45;kubernetes/go&#45;controller/pkg/util.init.0 &#45;&gt; github.com/ovn&#45;org/ovn&#45;kubernetes/go&#45;controller/pkg/util.findMaxArgsUsable (32.17MB)">
<text text-anchor="middle" x="660.5" y="-1111.8" font-family="Times-Roman" font-size="14.00"> 32.17MB</text>
</a>
</g>
</g>
<!-- N8 -->
<g id="node8" class="node">
<title>N8</title>
<g id="a_node8"><a xlink:title="os.StartProcess (192.74MB)">
<polygon fill="#edddd5" stroke="#b23e00" points="963,-527 849,-527 849,-491 963,-491 963,-527"/>
<text text-anchor="middle" x="906" y="-516.1" font-family="Times-Roman" font-size="8.00">os</text>
<text text-anchor="middle" x="906" y="-507.1" font-family="Times-Roman" font-size="8.00">StartProcess</text>
<text text-anchor="middle" x="906" y="-498.1" font-family="Times-Roman" font-size="8.00">0 of 192.74MB (24.08%)</text>
</a>
</g>
</g>
<!-- N9 -->
<g id="node9" class="node">
<title>N9</title>
<g id="a_node9"><a xlink:title="os.startProcess (192.74MB)">
<polygon fill="#edddd5" stroke="#b23e00" points="963,-440 849,-440 849,-404 963,-404 963,-440"/>
<text text-anchor="middle" x="906" y="-429.1" font-family="Times-Roman" font-size="8.00">os</text>
<text text-anchor="middle" x="906" y="-420.1" font-family="Times-Roman" font-size="8.00">startProcess</text>
<text text-anchor="middle" x="906" y="-411.1" font-family="Times-Roman" font-size="8.00">0 of 192.74MB (24.08%)</text>
</a>
</g>
</g>
<!-- N8&#45;&gt;N9 -->
<g id="edge19" class="edge">
<title>N8&#45;&gt;N9</title>
<g id="a_edge19"><a xlink:title="os.StartProcess &#45;&gt; os.startProcess (192.74MB)">
<path fill="none" stroke="#b23e00" stroke-width="2" d="M906,-490.8C906,-479.16 906,-463.55 906,-450.24"/>
<polygon fill="#b23e00" stroke="#b23e00" stroke-width="2" points="909.5,-450.18 906,-440.18 902.5,-450.18 909.5,-450.18"/>
</a>
</g>
<g id="a_edge19&#45;label"><a xlink:title="os.StartProcess &#45;&gt; os.startProcess (192.74MB)">
<text text-anchor="middle" x="944" y="-461.8" font-family="Times-Roman" font-size="14.00"> 192.74MB</text>
</a>
</g>
</g>
<!-- N14 -->
<g id="node14" class="node">
<title>N14</title>
<g id="a_node14"><a xlink:title="syscall.StartProcess (192.74MB)">
<polygon fill="#edddd5" stroke="#b23e00" points="963,-338 849,-338 849,-302 963,-302 963,-338"/>
<text text-anchor="middle" x="906" y="-327.1" font-family="Times-Roman" font-size="8.00">syscall</text>
<text text-anchor="middle" x="906" y="-318.1" font-family="Times-Roman" font-size="8.00">StartProcess</text>
<text text-anchor="middle" x="906" y="-309.1" font-family="Times-Roman" font-size="8.00">0 of 192.74MB (24.08%)</text>
</a>
</g>
</g>
<!-- N9&#45;&gt;N14 -->
<g id="edge20" class="edge">
<title>N9&#45;&gt;N14</title>
<g id="a_edge20"><a xlink:title="os.startProcess &#45;&gt; syscall.StartProcess (192.74MB)">
<path fill="none" stroke="#b23e00" stroke-width="2" d="M906,-403.58C906,-388.38 906,-366.07 906,-348.46"/>
<polygon fill="#b23e00" stroke="#b23e00" stroke-width="2" points="909.5,-348.22 906,-338.22 902.5,-348.22 909.5,-348.22"/>
</a>
</g>
<g id="a_edge20&#45;label"><a xlink:title="os.startProcess &#45;&gt; syscall.StartProcess (192.74MB)">
<text text-anchor="middle" x="944" y="-374.8" font-family="Times-Roman" font-size="14.00"> 192.74MB</text>
<text text-anchor="middle" x="944" y="-359.8" font-family="Times-Roman" font-size="14.00"> (inline)</text>
</a>
</g>
</g>
<!-- N11 -->
<g id="node11" class="node">
<title>N11</title>
<g id="a_node11"><a xlink:title="os/exec.(*Cmd).Run (193.24MB)">
<polygon fill="#edddd5" stroke="#b23d00" points="963,-717 849,-717 849,-673 963,-673 963,-717"/>
<text text-anchor="middle" x="906" y="-706.6" font-family="Times-Roman" font-size="8.00">exec</text>
<text text-anchor="middle" x="906" y="-697.6" font-family="Times-Roman" font-size="8.00">(*Cmd)</text>
<text text-anchor="middle" x="906" y="-688.6" font-family="Times-Roman" font-size="8.00">Run</text>
<text text-anchor="middle" x="906" y="-679.6" font-family="Times-Roman" font-size="8.00">0 of 193.24MB (24.15%)</text>
</a>
</g>
</g>
<!-- N10&#45;&gt;N11 -->
<g id="edge17" class="edge">
<title>N10&#45;&gt;N11</title>
<g id="a_edge17"><a xlink:title="os/exec.(*Cmd).Output &#45;&gt; os/exec.(*Cmd).Run (193.24MB)">
<path fill="none" stroke="#b23d00" stroke-width="2" d="M906,-788.82C906,-771.55 906,-746.89 906,-727.33"/>
<polygon fill="#b23d00" stroke="#b23d00" stroke-width="2" points="909.5,-727.06 906,-717.06 902.5,-727.06 909.5,-727.06"/>
</a>
</g>
<g id="a_edge17&#45;label"><a xlink:title="os/exec.(*Cmd).Output &#45;&gt; os/exec.(*Cmd).Run (193.24MB)">
<text text-anchor="middle" x="944" y="-738.8" font-family="Times-Roman" font-size="14.00"> 193.24MB</text>
</a>
</g>
</g>
<!-- N12 -->
<g id="node12" class="node">
<title>N12</title>
<g id="a_node12"><a xlink:title="os/exec.(*Cmd).Start (193.24MB)">
<polygon fill="#edddd5" stroke="#b23d00" points="963,-622 849,-622 849,-578 963,-578 963,-622"/>
<text text-anchor="middle" x="906" y="-611.6" font-family="Times-Roman" font-size="8.00">exec</text>
<text text-anchor="middle" x="906" y="-602.6" font-family="Times-Roman" font-size="8.00">(*Cmd)</text>
<text text-anchor="middle" x="906" y="-593.6" font-family="Times-Roman" font-size="8.00">Start</text>
<text text-anchor="middle" x="906" y="-584.6" font-family="Times-Roman" font-size="8.00">0 of 193.24MB (24.15%)</text>
</a>
</g>
</g>
<!-- N11&#45;&gt;N12 -->
<g id="edge18" class="edge">
<title>N11&#45;&gt;N12</title>
<g id="a_edge18"><a xlink:title="os/exec.(*Cmd).Run &#45;&gt; os/exec.(*Cmd).Start (193.24MB)">
<path fill="none" stroke="#b23d00" stroke-width="2" d="M906,-672.9C906,-660.89 906,-645.62 906,-632.24"/>
<polygon fill="#b23d00" stroke="#b23d00" stroke-width="2" points="909.5,-632.02 906,-622.02 902.5,-632.02 909.5,-632.02"/>
</a>
</g>
<g id="a_edge18&#45;label"><a xlink:title="os/exec.(*Cmd).Run &#45;&gt; os/exec.(*Cmd).Start (193.24MB)">
<text text-anchor="middle" x="944" y="-643.8" font-family="Times-Roman" font-size="14.00"> 193.24MB</text>
</a>
</g>
</g>
<!-- N12&#45;&gt;N8 -->
<g id="edge21" class="edge">
<title>N12&#45;&gt;N8</title>
<g id="a_edge21"><a xlink:title="os/exec.(*Cmd).Start &#45;&gt; os.StartProcess (192.74MB)">
<path fill="none" stroke="#b23e00" stroke-width="2" d="M906,-577.91C906,-565.78 906,-550.41 906,-537.36"/>
<polygon fill="#b23e00" stroke="#b23e00" stroke-width="2" points="909.5,-537.07 906,-527.07 902.5,-537.07 909.5,-537.07"/>
</a>
</g>
<g id="a_edge21&#45;label"><a xlink:title="os/exec.(*Cmd).Start &#45;&gt; os.StartProcess (192.74MB)">
<text text-anchor="middle" x="944" y="-548.8" font-family="Times-Roman" font-size="14.00"> 192.74MB</text>
</a>
</g>
</g>
<!-- N13&#45;&gt;N7 -->
<g id="edge25" class="edge">
<title>N13&#45;&gt;N7</title>
<g id="a_edge25"><a xlink:title="runtime.doInit &#45;&gt; github.com/ovn&#45;org/ovn&#45;kubernetes/go&#45;controller/pkg/util.init.0 (32.17MB)">
<path fill="none" stroke="#b2a48e" d="M660,-1235.84C660,-1224.44 660,-1209.13 660,-1195.58"/>
<polygon fill="#b2a48e" stroke="#b2a48e" points="663.5,-1195.19 660,-1185.19 656.5,-1195.19 663.5,-1195.19"/>
</a>
</g>
<g id="a_edge25&#45;label"><a xlink:title="runtime.doInit &#45;&gt; github.com/ovn&#45;org/ovn&#45;kubernetes/go&#45;controller/pkg/util.init.0 (32.17MB)">
<text text-anchor="middle" x="693.5" y="-1206.8" font-family="Times-Roman" font-size="14.00"> 32.17MB</text>
</a>
</g>
</g>
<!-- N15 -->
<g id="node15" class="node">
<title>N15</title>
<g id="a_node15"><a xlink:title="syscall.forkExec (192.74MB)">
<polygon fill="#edddd5" stroke="#b23e00" points="963,-251 849,-251 849,-215 963,-215 963,-251"/>
<text text-anchor="middle" x="906" y="-240.1" font-family="Times-Roman" font-size="8.00">syscall</text>
<text text-anchor="middle" x="906" y="-231.1" font-family="Times-Roman" font-size="8.00">forkExec</text>
<text text-anchor="middle" x="906" y="-222.1" font-family="Times-Roman" font-size="8.00">0 of 192.74MB (24.08%)</text>
</a>
</g>
</g>
<!-- N14&#45;&gt;N15 -->
<g id="edge22" class="edge">
<title>N14&#45;&gt;N15</title>
<g id="a_edge22"><a xlink:title="syscall.StartProcess &#45;&gt; syscall.forkExec (192.74MB)">
<path fill="none" stroke="#b23e00" stroke-width="2" d="M906,-301.8C906,-290.16 906,-274.55 906,-261.24"/>
<polygon fill="#b23e00" stroke="#b23e00" stroke-width="2" points="909.5,-261.18 906,-251.18 902.5,-261.18 909.5,-261.18"/>
</a>
</g>
<g id="a_edge22&#45;label"><a xlink:title="syscall.StartProcess &#45;&gt; syscall.forkExec (192.74MB)">
<text text-anchor="middle" x="944" y="-272.8" font-family="Times-Roman" font-size="14.00"> 192.74MB</text>
</a>
</g>
</g>
<!-- N15&#45;&gt;N4 -->
<g id="edge23" class="edge">
<title>N15&#45;&gt;N4</title>
<g id="a_edge23"><a xlink:title="syscall.forkExec &#45;&gt; syscall.SlicePtrFromStrings (192.74MB)">
<path fill="none" stroke="#b23e00" stroke-width="2" d="M906,-214.58C906,-203.56 906,-188.73 906,-174.39"/>
<polygon fill="#b23e00" stroke="#b23e00" stroke-width="2" points="909.5,-174.09 906,-164.09 902.5,-174.09 909.5,-174.09"/>
</a>
</g>
<g id="a_edge23&#45;label"><a xlink:title="syscall.forkExec &#45;&gt; syscall.SlicePtrFromStrings (192.74MB)">
<text text-anchor="middle" x="944" y="-185.8" font-family="Times-Roman" font-size="14.00"> 192.74MB</text>
</a>
</g>
</g>
</g>
</g></svg>
